<svg width="16" height="16" viewBox="0 0 16 16" fill="none" xmlns="http://www.w3.org/2000/svg">
<path fill-rule="evenodd" clip-rule="evenodd" d="M8.00004 1.33301C7.68239 1.33301 7.36865 1.40314 7.08124 1.53839L2.86458 3.5227C1.92994 3.96254 1.33337 4.90259 1.33337 5.93555V10.6663C1.33337 11.3315 1.71753 11.9369 2.31939 12.2201L7.08124 14.461C7.36865 14.5962 7.68239 14.6663 8.00004 14.6663C8.31769 14.6663 8.63143 14.5962 8.91885 14.461L13.6807 12.2201C14.2826 11.9369 14.6667 11.3315 14.6667 10.6663V5.93555C14.6667 4.90259 14.0701 3.96254 13.1355 3.5227L8.91885 1.53839C8.63143 1.40314 8.31769 1.33301 8.00004 1.33301ZM13.3334 9.58765L8.66671 7.25432V2.89333L12.5678 4.72913C13.0351 4.94904 13.3334 5.41907 13.3334 5.93555V9.58765ZM8.00004 8.4117L13.1562 10.9898C13.1425 10.9986 13.128 11.0066 13.113 11.0137L8.35112 13.2545C8.24129 13.3062 8.12142 13.333 8.00004 13.333C7.87867 13.333 7.75879 13.3062 7.64897 13.2545L2.88712 11.0137C2.87207 11.0066 2.85763 10.9986 2.84385 10.9898L8.00004 8.4117ZM7.33337 7.25432L2.66671 9.58765V5.93555C2.66671 5.41907 2.96499 4.94904 3.43231 4.72913L7.33337 2.89333V7.25432Z" fill="black"/>
</svg>
