<svg width="24" height="24" viewBox="0 0 24 24" fill="none" xmlns="http://www.w3.org/2000/svg">
<path fill-rule="evenodd" clip-rule="evenodd" d="M18.5 20C18.5 20.275 18.276 20.5 18 20.5H6C5.724 20.5 5.5 20.275 5.5 20V16.25C5.5 15.8358 5.16421 15.5 4.75 15.5C4.33579 15.5 4 15.8358 4 16.25V20C4 21.104 4.896 22 6 22H18C19.104 22 20 21.104 20 20V9.828C20 9.298 19.789 8.789 19.414 8.414L13.585 2.586C13.57 2.57105 13.5531 2.55808 13.5363 2.54519C13.5238 2.53567 13.5115 2.5262 13.5 2.516C13.429 2.452 13.359 2.389 13.281 2.336C13.2557 2.31894 13.2281 2.30548 13.2005 2.29207L13.1995 2.29157C13.1838 2.28393 13.1682 2.27629 13.153 2.268C13.1383 2.25974 13.1238 2.25131 13.1091 2.24286L13.103 2.23933L13.1027 2.23917C13.0486 2.20786 12.9943 2.17644 12.937 2.152C12.74 2.07 12.528 2.029 12.313 2.014C12.2933 2.01274 12.2739 2.01009 12.2543 2.00743L12.2542 2.00741C12.2271 2.00371 12.1999 2 12.172 2H6C4.896 2 4 2.896 4 4V9.25C4 9.66421 4.33579 10 4.75 10C5.16421 10 5.5 9.66421 5.5 9.25V4C5.5 3.725 5.724 3.5 6 3.5H12V8C12 9.104 12.896 10 14 10H18.5V20ZM13.5 4.621L17.378 8.5H14C13.724 8.5 13.5 8.275 13.5 8V4.621ZM5.25508 13H2.75L2.64718 13.0069L2.63692 13.0085C2.27619 13.063 2 13.3744 2 13.75C2 14.1642 2.33579 14.5 2.75 14.5H5.7452L5.85645 14.4918L5.86759 14.49C5.88306 14.4874 5.89841 14.4844 5.9136 14.4809C6.14148 14.4284 6.33564 14.2712 6.4321 14.0511L7.46737 11.6894L9.80375 17.524L9.85261 17.6251L9.85818 17.6344C10.1499 18.124 10.8889 18.12 11.1641 17.5937L13.1428 14.4999H14.697L14.7998 14.493L14.8101 14.4915C15.1708 14.4369 15.447 14.1255 15.447 13.7499C15.447 13.3357 15.1112 12.9999 14.697 12.9999H12.6971L12.5909 13.0074L12.5802 13.0091C12.3493 13.0454 12.1462 13.1882 12.0348 13.3979L10.6081 15.4977L8.1949 9.47122L8.14458 9.36753L8.13885 9.358C7.8355 8.85279 7.06044 8.88159 6.81175 9.44892L5.25508 13Z" fill="#25c7bc"/>
</svg>
