<svg width="24" height="24" viewBox="0 0 24 24" fill="none" xmlns="http://www.w3.org/2000/svg">
<path d="M10.7327 19.7908C11.0326 20.0765 11.5074 20.065 11.7931 19.765C12.0788 19.4651 12.0672 18.9904 11.7673 18.7047L5.516 12.7502L20.25 12.7502C20.6642 12.7502 21 12.4144 21 12.0002C21 11.586 20.6642 11.2502 20.25 11.2502L5.5156 11.2502L11.7673 5.29538C12.0672 5.0097 12.0788 4.53496 11.7931 4.23504C11.5074 3.93511 11.0326 3.92357 10.7327 4.20925L3.3138 11.2759C3.1447 11.437 3.0448 11.6424 3.0139 11.8559C3.0048 11.9026 3 11.9508 3 12.0002C3 12.0499 3.0048 12.0985 3.0141 12.1455C3.0452 12.3585 3.1451 12.5634 3.3138 12.7241L10.7327 19.7908Z" fill="#602650"/>
</svg>
