<svg width="24" height="24" viewBox="0 0 24 24" fill="none" xmlns="http://www.w3.org/2000/svg">
<path fill-rule="evenodd" clip-rule="evenodd" d="M3.53263 11.25H20.4674C20.0877 6.90686 16.4417 3.5 12 3.5C7.55831 3.5 3.91233 6.90686 3.53263 11.25ZM20.4674 12.75H3.53263C3.91233 17.0931 7.55831 20.5 12 20.5C16.4417 20.5 20.0877 17.0931 20.4674 12.75ZM2 12C2 6.47715 6.47715 2 12 2C17.5228 2 22 6.47715 22 12C22 17.5228 17.5228 22 12 22C6.47715 22 2 17.5228 2 12ZM13 7C13 7.55228 12.5523 8 12 8C11.4477 8 11 7.55228 11 7C11 6.44772 11.4477 6 12 6C12.5523 6 13 6.44772 13 7ZM12 17C12.5523 17 13 16.5523 13 16C13 15.4477 12.5523 15 12 15C11.4477 15 11 15.4477 11 16C11 16.5523 11.4477 17 12 17Z" fill="#1EBAC4"/>
</svg>
