<svg width="20" height="20" viewBox="0 0 20 20" fill="none" xmlns="http://www.w3.org/2000/svg">
<g clip-path="url(#clip0_750_71)">
<path d="M19.2164 10.2647H15.3177C15.2617 9.7891 15.152 9.32977 14.9945 8.89294H19.2769C19.5992 8.89294 19.8615 8.63353 19.8651 8.31118C19.916 3.6709 16.1703 0 11.6525 0C11.3276 0 11.0643 0.263373 11.0643 0.588235V5.07929C10.6363 4.93957 10.1882 4.84506 9.72544 4.80149V2.58353C9.72544 2.25867 9.46207 1.99529 9.13721 1.99529C4.16164 1.99529 0.13446 6.02157 0.13446 10.9977C0.13446 15.973 4.16117 20 9.13721 20C11.129 20 13.0165 19.3625 14.5958 18.1565C14.8556 17.9582 14.9032 17.5864 14.7039 17.3289L13.3477 15.5768C13.7506 15.206 14.1046 14.783 14.3988 14.3184L16.092 16.5059C16.29 16.7616 16.6572 16.8096 16.9142 16.6133C18.7247 15.2306 19.7782 13.1336 19.8046 10.8598C19.8084 10.5323 19.5438 10.2647 19.2164 10.2647ZM12.2407 1.20051C15.6297 1.47882 18.4267 4.19722 18.6717 7.71643H14.4236C13.8813 6.84576 13.1303 6.118 12.2407 5.60408V1.20051ZM13.3977 17.5635C12.1307 18.3897 10.6695 18.8235 9.13721 18.8235C4.82179 18.8235 1.31093 15.3129 1.31093 10.9976C1.31093 6.88024 4.50717 3.49525 8.54897 3.19361V4.80141C5.39172 5.09867 2.91281 7.76388 2.91281 10.9976C2.91281 14.4296 5.70493 17.2217 9.13693 17.2217C10.3374 17.2217 11.4592 16.8798 12.411 16.2887L13.3977 17.5635ZM9.13693 16.0453C6.35364 16.0453 4.08928 13.7809 4.08928 10.9976C4.08928 8.21427 6.35364 5.94992 9.13693 5.94992C11.9202 5.94992 14.1846 8.21427 14.1846 10.9976C14.1846 13.7809 11.9202 16.0453 9.13693 16.0453ZM16.6481 15.3023L14.9789 13.1457C15.1772 12.6082 15.303 12.0361 15.3451 11.4412H18.5931C18.4341 12.9259 17.7481 14.2879 16.6481 15.3023Z" fill="#7F396A"/>
<path d="M9.76861 10.4094H8.50528C8.20406 10.4094 7.959 10.1644 7.959 9.86313C7.959 9.56097 8.20359 9.31685 8.50512 9.31685C8.50802 9.31689 8.51085 9.31689 8.51367 9.31689H9.72351C9.93936 9.31905 10.1528 9.41599 10.3094 9.58313C10.5316 9.82015 10.9038 9.83227 11.1409 9.61007C11.3779 9.38791 11.39 9.01568 11.1679 8.77862C10.7744 8.35881 10.2356 8.14046 9.72516 8.14046V7.62803C9.72516 7.30317 9.46179 7.03979 9.13692 7.03979C8.81206 7.03979 8.54869 7.30317 8.54869 7.62803V8.14046C7.48822 8.14046 6.78253 8.96003 6.78253 9.86317C6.78253 10.8131 7.55536 11.586 8.50528 11.586H9.76861C10.0698 11.586 10.3149 11.831 10.3149 12.1322C10.3149 12.4226 10.0854 12.6785 9.76022 12.6785H8.44022C8.28779 12.6769 8.12583 12.622 7.98402 12.5236C7.71708 12.3383 7.35057 12.4047 7.16539 12.6715C6.98022 12.9385 7.04645 13.3049 7.31336 13.4901C7.72614 13.7765 8.10359 13.855 8.54865 13.855V14.3674C8.54865 14.6923 8.81202 14.9556 9.13689 14.9556C9.46175 14.9556 9.72512 14.6923 9.72512 14.3674V13.855C10.7943 13.855 11.4913 13.0274 11.4913 12.1322C11.4914 11.1823 10.7186 10.4094 9.76861 10.4094Z" fill="#7F396A"/>
</g>
<defs>
<clipPath id="clip0_750_71">
<rect width="20" height="20" fill="white"/>
</clipPath>
</defs>
</svg>
