<svg width="16" height="16" viewBox="0 0 16 16" fill="none" xmlns="http://www.w3.org/2000/svg">
<path d="M9.83333 2.66837C10.6617 2.66837 11.3333 3.33995 11.3333 4.16837V4.66663H13.1667C13.9951 4.66663 14.6667 5.3382 14.6667 6.16663V11.8312C14.6667 12.6596 13.9951 13.3312 13.1667 13.3312H2.83333C2.0049 13.3312 1.33333 12.6596 1.33333 11.8312V6.16663C1.33333 5.3382 2.0049 4.66663 2.83333 4.66663H4.66666V4.16837C4.66666 3.33995 5.33823 2.66837 6.16666 2.66837H9.83333ZM4.33333 8.66663H2.33333V11.8312C2.33333 12.1073 2.55719 12.3312 2.83333 12.3312H13.1667C13.4428 12.3312 13.6667 12.1073 13.6667 11.8312V8.66663H11.6667V9.49996C11.6667 9.77609 11.4428 9.99996 11.1667 9.99996C10.8905 9.99996 10.6667 9.77609 10.6667 9.49996V8.66663H5.33333V9.49996C5.33333 9.77609 5.10947 9.99996 4.83333 9.99996C4.55719 9.99996 4.33333 9.77609 4.33333 9.49996V8.66663ZM13.1667 5.66663H11.3333L10.3333 5.66837L5.66666 5.66663L4.66666 5.66837L2.83333 5.66663C2.55719 5.66663 2.33333 5.89049 2.33333 6.16663V7.66663H4.33333V7.16663C4.33333 6.89049 4.55719 6.66663 4.83333 6.66663C5.10947 6.66663 5.33333 6.89049 5.33333 7.16663V7.66663H10.6667V7.16663C10.6667 6.89049 10.8905 6.66663 11.1667 6.66663C11.4428 6.66663 11.6667 6.89049 11.6667 7.16663V7.66663H13.6667V6.16663C13.6667 5.89049 13.4428 5.66663 13.1667 5.66663ZM9.83333 3.66837H6.16666C5.89052 3.66837 5.66666 3.89223 5.66666 4.16837V4.66663H10.3333V4.16837C10.3333 3.89223 10.1095 3.66837 9.83333 3.66837Z" fill="#602650"/>
</svg>
