<svg width="24" height="24" viewBox="0 0 24 24" fill="none" xmlns="http://www.w3.org/2000/svg">
<path fill-rule="evenodd" clip-rule="evenodd" d="M9.00018 1.75C9.00018 1.33579 9.33597 1 9.75018 1C10.1644 1 10.5001 1.33579 10.5001 1.75V3.01536C10.9508 3.0556 11.3905 3.24821 11.7354 3.59318L15.271 7.12871C16.052 7.90976 16.052 9.17609 15.271 9.95714L11.0283 14.1998C10.2473 14.9808 8.98098 14.9808 8.19993 14.1998L4.6644 10.6642C3.88335 9.8832 3.88335 8.61687 4.6644 7.83582L8.90704 3.59318C8.93737 3.56284 8.96844 3.53368 9.00018 3.5057V1.75ZM9.00018 6.25V5.62135L6.11076 8.51077H14.3557C14.3482 8.39373 14.2997 8.27882 14.2103 8.18937L10.6748 4.65384C10.6235 4.60254 10.5638 4.56471 10.5001 4.54037V6.25C10.5001 6.66421 10.1644 7 9.75018 7C9.33597 7 9.00018 6.66421 9.00018 6.25ZM6.13224 10.0108L9.26059 13.1391C9.45585 13.3344 9.77243 13.3344 9.9677 13.1391L13.096 10.0108H6.13224ZM6.58573 14H4.5C3.11929 14 2 15.1193 2 16.5V19.5C2 20.8807 3.11929 22 4.5 22H19.5C20.8807 22 22 20.8807 22 19.5V16.5C22 15.285 21.1333 14.2725 19.9844 14.0469C19.9945 14.1543 20 14.2638 20 14.3749C20 14.7762 19.9349 15.1734 19.8115 15.5495C20.2113 15.6804 20.5 16.0565 20.5 16.5V19.5C20.5 20.0523 20.0523 20.5 19.5 20.5H4.5C3.94772 20.5 3.5 20.0523 3.5 19.5V16.5C3.5 15.9477 3.94772 15.5 4.5 15.5H8.3345C8.02991 15.3564 7.74449 15.1588 7.49269 14.907L6.58573 14ZM14.3418 12.9938C14.1541 13.4027 14 13.8816 14 14.375C14 15.7654 15.0289 17 16.5 17C17.9711 17 19 15.7654 19 14.375C19 13.8816 18.8459 13.4027 18.6582 12.9938C18.4675 12.5784 18.2202 12.1881 17.9842 11.8595C17.7469 11.5289 17.5112 11.247 17.3353 11.0481L17.0303 10.7197C16.7374 10.4268 16.2626 10.4268 15.9697 10.7197L15.9642 10.7254L15.962 10.7277C15.9024 10.7907 15.7492 10.9526 15.6647 11.0481C15.4888 11.247 15.2531 11.5289 15.0158 11.8595C14.7798 12.1881 14.5325 12.5784 14.3418 12.9938ZM16.5 12.3844C16.5858 12.4916 16.676 12.6092 16.7658 12.7343C16.9673 13.015 17.1575 13.32 17.2949 13.6195C17.4353 13.9253 17.5 14.1808 17.5 14.375C17.5 15.0663 17.0191 15.5 16.5 15.5C15.9809 15.5 15.5 15.0663 15.5 14.375C15.5 14.1808 15.5647 13.9253 15.7051 13.6195C15.8425 13.32 16.0327 13.015 16.2342 12.7343C16.324 12.6092 16.4142 12.4916 16.5 12.3844Z" fill="#602650"/>
</svg>
