<svg width="14" height="14" viewBox="0 0 14 14" fill="none" xmlns="http://www.w3.org/2000/svg">
<path d="M12.9377 0.560304C13.2062 0.828789 13.2287 1.25013 13.005 1.54415L12.9379 1.62096L7.81215 6.74845L12.9409 11.8772C13.2338 12.1701 13.2338 12.6449 12.9409 12.9378C12.6724 13.2063 12.251 13.2287 11.957 13.0049L11.8802 12.9378L6.75149 7.80911L1.62704 12.9364C1.33421 13.2294 0.859274 13.2296 0.566381 12.9367C0.297895 12.6682 0.275381 12.2468 0.49906 11.9528L0.566165 11.876L5.69083 6.74845L0.565013 1.62263C0.27212 1.32974 0.27212 0.854864 0.565013 0.561971C0.833499 0.293485 1.2549 0.271111 1.54887 0.494849L1.62567 0.561971L6.75149 5.68779L11.8771 0.560519C12.1699 0.267567 12.6448 0.267411 12.9377 0.560304Z" fill="#612551"/>
</svg>
