<svg width="25" height="24" viewBox="0 0 25 24" fill="none" xmlns="http://www.w3.org/2000/svg">
<path d="M12.6666 2C18.1895 2 22.6666 6.47715 22.6666 12C22.6666 17.5228 18.1895 22 12.6666 22C7.14378 22 2.66663 17.5228 2.66663 12C2.66663 6.47715 7.14378 2 12.6666 2ZM12.6666 3.5C7.97221 3.5 4.16663 7.30558 4.16663 12C4.16663 16.6944 7.97221 20.5 12.6666 20.5C17.361 20.5 21.1666 16.6944 21.1666 12C21.1666 7.30558 17.361 3.5 12.6666 3.5ZM16.1128 8.39705L16.197 8.46967C16.4632 8.73594 16.4874 9.1526 16.2696 9.44621L16.197 9.53033L13.7276 12L16.197 14.4697C16.4632 14.7359 16.4874 15.1526 16.2696 15.4462L16.197 15.5303C15.9307 15.7966 15.514 15.8208 15.2204 15.6029L15.1363 15.5303L12.6666 13.061L10.197 15.5303C9.93069 15.7966 9.51403 15.8208 9.22041 15.6029L9.1363 15.5303C8.87003 15.2641 8.84582 14.8474 9.06368 14.5538L9.1363 14.4697L11.6056 12L9.1363 9.53033C8.87003 9.26406 8.84582 8.8474 9.06368 8.55379L9.1363 8.46967C9.40256 8.2034 9.81923 8.1792 10.1128 8.39705L10.197 8.46967L12.6666 10.939L15.1363 8.46967C15.4026 8.2034 15.8192 8.1792 16.1128 8.39705Z" fill="#F32641"/>
</svg>
