<svg width="24" height="24" viewBox="0 0 24 24" fill="none" xmlns="http://www.w3.org/2000/svg">
<path d="M12.2409 2.96387C12.0065 2.96387 11.7972 3.07138 11.6597 3.23979L11.6026 3.283C9.45825 2.63294 7.03218 3.15046 5.33622 4.83556C3.82767 6.33446 3.24887 8.40733 3.59981 10.3467L3.58479 10.3614L2.62764 11.3125C1.79534 12.1394 1.79534 13.4802 2.62764 14.3072C3.1166 14.793 3.78405 14.9935 4.42026 14.9085C4.51401 15.2547 4.69764 15.582 4.97114 15.8537C5.34289 16.2231 5.81779 16.4275 6.30371 16.4669C6.34331 16.9498 6.54902 17.4218 6.92085 17.7912C7.30976 18.1777 7.81158 18.3835 8.32078 18.4088C8.34631 18.9147 8.55349 19.4131 8.94232 19.7995C9.7026 20.5549 10.8944 20.6203 11.7293 19.9956L12.1158 20.3796C12.9522 21.2106 14.3081 21.2106 15.1445 20.3796C15.5149 20.0115 15.7212 19.5424 15.7635 19.0616C16.2464 19.0205 16.7179 18.8164 17.0876 18.449C17.4583 18.0808 17.6638 17.6109 17.7045 17.1299C18.1811 17.0853 18.6455 16.8817 19.0106 16.5189C19.2968 16.2346 19.4846 15.8895 19.574 15.5255C20.2007 15.5999 20.8542 15.3981 21.3351 14.9203C22.1674 14.0933 22.1674 12.7526 21.3351 11.9256L20.5016 11.0974L20.6729 10.4309C21.0452 8.98162 20.858 7.44648 20.1484 6.12803C19.1009 4.18154 17.0617 2.96888 14.845 2.96888H13.2383C13.1698 2.96555 13.101 2.96387 13.0318 2.96387H12.2409ZM15.1651 7.909L18.6288 11.3505L18.6327 11.3546L18.646 11.3682L20.271 12.9828C20.5157 13.2259 20.5157 13.62 20.271 13.8631C20.0264 14.1061 19.6298 14.1061 19.3851 13.8631L17.7601 12.2484C17.4663 11.9565 16.9899 11.9565 16.6961 12.2484L16.6798 12.2646C16.3859 12.5566 16.3859 13.0299 16.6798 13.3219L17.9466 14.5806C18.1914 14.8239 18.1914 15.2183 17.9466 15.4616C17.7234 15.6833 17.3726 15.7033 17.1276 15.5201C16.8269 15.2953 16.4053 15.3258 16.1405 15.5916C15.8758 15.8573 15.8493 16.2765 16.0786 16.573C16.267 16.8167 16.2483 17.1685 16.0236 17.3918C15.797 17.6169 15.4391 17.6339 15.1936 17.4419C14.8949 17.2082 14.4676 17.2327 14.1979 17.499C13.9281 17.7653 13.9008 18.1897 14.1341 18.488C14.3278 18.7356 14.3095 19.0947 14.0804 19.3224C13.8317 19.5694 13.4286 19.5694 13.1799 19.3224L12.8082 18.953L12.9134 18.8484C13.7457 18.0215 13.7457 16.6807 12.9134 15.8537C12.5245 15.4673 12.0227 15.2614 11.5135 15.2361C11.488 14.7303 11.2808 14.2318 10.892 13.8455C10.5202 13.4761 10.0453 13.2717 9.55946 13.2323C9.51986 12.7494 9.31414 12.2774 8.94232 11.9079C8.45335 11.4221 7.78591 11.2217 7.14969 11.3067C7.05594 10.9604 6.87232 10.6332 6.59881 10.3614C6.16747 9.93286 5.59724 9.72639 5.03208 9.74204C4.88528 8.3693 5.34135 6.94497 6.40028 5.89282C7.3845 4.91489 8.69231 4.45443 9.98125 4.51144L8.4838 5.64597C7.45993 6.4217 7.26269 7.87896 8.04351 8.89895C8.82256 9.91662 10.2807 10.114 11.3022 9.34002L13.191 7.909H15.1651ZM9.38964 6.84157L12.5279 4.46387H13.0318C13.0813 4.46387 13.1304 4.46519 13.1791 4.4678C13.1924 4.46852 13.2058 4.46888 13.2192 4.46888H14.845C16.5132 4.46888 18.0432 5.38147 18.8276 6.83887C19.3223 7.75815 19.4775 8.81734 19.2714 9.83406L16.0593 6.63761C15.918 6.4915 15.7234 6.409 15.5202 6.409H12.939C12.7754 6.409 12.6164 6.46244 12.486 6.5612L10.3964 8.14442C10.0328 8.41986 9.51184 8.34934 9.23458 7.98716C8.9591 7.6273 9.02841 7.11526 9.38964 6.84157ZM6.0352 14.7965C5.8673 14.6296 5.81463 14.3917 5.87721 14.1802C5.90581 14.0836 5.95847 13.9925 6.0352 13.9162L6.99236 12.9652C7.23699 12.7221 7.63362 12.7221 7.87826 12.9652C8.1201 13.2055 8.12286 13.5934 7.88654 13.837L7.878 13.8455L6.92085 14.7965L6.9126 14.8048C6.83764 14.8765 6.74912 14.9261 6.65543 14.9534C6.44261 15.0156 6.20311 14.9633 6.0352 14.7965ZM5.54392 11.428C5.61941 11.5061 5.67038 11.5991 5.69683 11.6971C5.75285 11.9049 5.69884 12.1359 5.53475 12.2989L4.5776 13.25C4.33296 13.493 3.93633 13.493 3.6917 13.25C3.44706 13.0069 3.44706 12.6128 3.6917 12.3697L4.64885 11.4187C4.89349 11.1756 5.29012 11.1756 5.53475 11.4187L5.54392 11.428ZM10.8922 18.7422C10.8154 18.8186 10.7235 18.871 10.626 18.8994C10.4134 18.9613 10.1741 18.9089 10.0063 18.7422C9.83861 18.5755 9.78589 18.3378 9.84823 18.1265C9.87679 18.0297 9.9295 17.9384 10.0063 17.862L10.9635 16.911C11.2081 16.6679 11.6048 16.6679 11.8494 16.911C12.094 17.154 12.094 17.5481 11.8494 17.7912L10.8922 18.7422ZM8.87081 16.734C8.79414 16.8102 8.70254 16.8625 8.60537 16.8909C8.39249 16.9532 8.15287 16.9009 7.98491 16.734C7.81694 16.5671 7.7643 16.329 7.82699 16.1175C7.85456 16.0245 7.90444 15.9366 7.97663 15.8621L7.98516 15.8537L8.94232 14.9027L8.95056 14.8944C9.1958 14.6597 9.58614 14.6625 9.82796 14.9027C10.0726 15.1458 10.0726 15.5399 9.82796 15.783L8.87081 16.734Z" fill="#602650"/>
</svg>
