<svg width="16" height="16" viewBox="0 0 16 16" fill="none" xmlns="http://www.w3.org/2000/svg">
<path d="M14 12.1673C14 11.3392 13.3287 10.6679 12.5006 10.6679H3.49939C2.6713 10.6679 2 11.3392 2 12.1673C2 12.9954 2.6713 13.6667 3.49939 13.6667H12.5006C13.3287 13.6667 14 12.9954 14 12.1673ZM11.3333 7.83393C11.3333 7.00586 10.6621 6.33455 9.83393 6.33455H3.49939C2.6713 6.33455 2 7.00586 2 7.83393C2 8.66206 2.6713 9.33333 3.49939 9.33333H9.83393C10.6621 9.33333 11.3333 8.66206 11.3333 7.83393ZM8.66667 3.50061C8.66667 2.67252 7.9954 2.00122 7.16727 2.00122H3.49939C2.6713 2.00122 2 2.67252 2 3.50061C2 4.3287 2.6713 4.99999 3.49939 4.99999H7.16727C7.9954 4.99999 8.66667 4.3287 8.66667 3.50061ZM13 12.1673C13 12.4431 12.7764 12.6667 12.5006 12.6667H3.49939C3.22359 12.6667 3 12.4431 3 12.1673C3 11.8915 3.22359 11.6679 3.49939 11.6679H12.5006C12.7764 11.6679 13 11.8915 13 12.1673ZM10.3333 7.83393C10.3333 8.10973 10.1097 8.33333 9.83393 8.33333H3.49939C3.22359 8.33333 3 8.10973 3 7.83393C3 7.55813 3.22359 7.33453 3.49939 7.33453H9.83393C10.1097 7.33453 10.3333 7.55813 10.3333 7.83393ZM7.66667 3.50061C7.66667 3.77641 7.44307 3.99999 7.16727 3.99999H3.49939C3.22359 3.99999 3 3.77641 3 3.50061C3 3.2248 3.22359 3.00122 3.49939 3.00122H7.16727C7.44307 3.00122 7.66667 3.2248 7.66667 3.50061Z" fill="#602650"/>
</svg>
