<svg width="24" height="24" viewBox="0 0 24 24" fill="none" xmlns="http://www.w3.org/2000/svg">
<path d="M12.0001 1.99896C17.5238 1.99896 22.0016 6.47681 22.0016 12.0005C22.0016 17.5242 17.5238 22.0021 12.0001 22.0021C6.47638 22.0021 1.99854 17.5242 1.99854 12.0005C1.99854 6.47681 6.47638 1.99896 12.0001 1.99896ZM12.0001 3.49896C7.30481 3.49896 3.49854 7.30524 3.49854 12.0005C3.49854 16.6958 7.30481 20.5021 12.0001 20.5021C16.6954 20.5021 20.5016 16.6958 20.5016 12.0005C20.5016 7.30524 16.6954 3.49896 12.0001 3.49896ZM11.9964 10.4995C12.3761 10.4993 12.6901 10.7812 12.74 11.1473L12.7469 11.2491L12.7505 16.7506C12.7508 17.1649 12.4152 17.5009 12.001 17.5011C11.6213 17.5014 11.3073 17.2194 11.2574 16.8534L11.2505 16.7516L11.2469 11.25C11.2467 10.8358 11.5822 10.4998 11.9964 10.4995ZM12.0005 7.00178C12.5521 7.00178 12.9992 7.4489 12.9992 8.00044C12.9992 8.55199 12.5521 8.99911 12.0005 8.99911C11.449 8.99911 11.0019 8.55199 11.0019 8.00044C11.0019 7.4489 11.449 7.00178 12.0005 7.00178Z" fill="#602650"/>
</svg>
