<svg width="24" height="24" viewBox="0 0 24 24" fill="none" xmlns="http://www.w3.org/2000/svg">
<path fill-rule="evenodd" clip-rule="evenodd" d="M21 6.25C21 4.45507 19.5449 3 17.75 3H6.25C4.45507 3 3 4.45507 3 6.25V17.75C3 19.5449 4.45507 21 6.25 21H10.25V20.25V19.5H6.25C5.2835 19.5 4.5 18.7165 4.5 17.75V8.5H19.5V17.75C19.5 18.7165 18.7165 19.5 17.75 19.5H13.75V20.25V21H17.75C19.5449 21 21 19.5449 21 17.75V6.25ZM6.25 4.5H17.75C18.7165 4.5 19.5 5.2835 19.5 6.25V7H4.5V6.25C4.5 5.2835 5.2835 4.5 6.25 4.5ZM13.25 11.75C13.25 12.4404 12.6904 13 12 13C11.3096 13 10.75 12.4404 10.75 11.75C10.75 11.0596 11.3096 10.5 12 10.5C12.6904 10.5 13.25 11.0596 13.25 11.75ZM14.8106 18.2483C14.5354 18.5579 14.0614 18.5857 13.7518 18.3106L12.7501 17.4201V21.25C12.7501 21.6642 12.4143 22 12.0001 22C11.5858 22 11.2501 21.6642 11.2501 21.25V17.4201L10.2483 18.3106C9.93869 18.5857 9.46464 18.5579 9.18945 18.2483C8.91426 17.9387 8.94215 17.4646 9.25173 17.1894L11.5018 15.1894C11.7859 14.9369 12.2142 14.9369 12.4983 15.1894L14.7483 17.1894C15.0579 17.4646 15.0858 17.9387 14.8106 18.2483Z" fill="#602650"/>
</svg>
