<svg width="24" height="24" viewBox="0 0 24 24" fill="none" xmlns="http://www.w3.org/2000/svg">
<path fill-rule="evenodd" clip-rule="evenodd" d="M6.25 4C5.00736 4 4 5.00736 4 6.25V17.25C4 19.0449 5.45507 20.5 7.25 20.5H17.25C19.0449 20.5 20.5 19.0449 20.5 17.25V14H17V6.25C17 5.00736 15.9926 4 14.75 4H6.25ZM17.25 19H17V15.5H19V17.25C19 18.2165 18.2165 19 17.25 19ZM15.5 6.25V19H7.25C6.2835 19 5.5 18.2165 5.5 17.25V6.25C5.5 5.83579 5.83579 5.5 6.25 5.5H14.75C15.1642 5.5 15.5 5.83579 15.5 6.25ZM7.75 8C7.33579 8 7 8.33579 7 8.75C7 9.16422 7.33579 9.5 7.75 9.5H13.25C13.6642 9.5 14 9.16422 14 8.75C14 8.33579 13.6642 8 13.25 8H7.75ZM7.75 11.5C7.33579 11.5 7 11.8358 7 12.25C7 12.6642 7.33579 13 7.75 13H13.25C13.6642 13 14 12.6642 14 12.25C14 11.8358 13.6642 11.5 13.25 11.5H7.75ZM7.75 15C7.33579 15 7 15.3358 7 15.75C7 16.1642 7.33579 16.5 7.75 16.5H10.25C10.6642 16.5 11 16.1642 11 15.75C11 15.3358 10.6642 15 10.25 15H7.75Z" fill="#F95066"/>
</svg>
