<svg width="41" height="41" viewBox="0 0 41 41" fill="none" xmlns="http://www.w3.org/2000/svg">
<path d="M6.84594 11.9429H11.119C11.4733 11.9429 11.7634 12.2334 11.7634 12.5878V16.8682C11.7634 17.223 11.4733 17.5131 11.119 17.5131H6.84594C6.49162 17.5131 6.20154 17.223 6.20154 16.8682V12.5878C6.20154 12.2334 6.49162 11.9429 6.84594 11.9429Z" fill="#61264F"/>
<path d="M13.0117 6.26294H16.8734C17.1819 6.26294 17.4343 6.51571 17.4343 6.8247V10.6926C17.4343 11.0016 17.1819 11.2543 16.8734 11.2543H13.0117C12.7032 11.2543 12.4508 11.0016 12.4508 10.6926V6.8247C12.4508 6.51571 12.7032 6.26294 13.0117 6.26294Z" fill="#61264F"/>
<path d="M19.1697 0.583313H22.6259C22.8891 0.583313 23.1046 0.799215 23.1046 1.06321V4.52453C23.1046 4.78855 22.8891 5.00399 22.6259 5.00399H19.1697C18.9061 5.00399 18.6906 4.78855 18.6906 4.52453V1.06321C18.6906 0.799215 18.9061 0.583313 19.1697 0.583313Z" fill="#61264F"/>
<path d="M25.2519 6.90704H28.3084C28.5276 6.90704 28.7068 7.08652 28.7068 7.30599V10.3675C28.7068 10.587 28.5276 10.7664 28.3084 10.7664H25.2519C25.0327 10.7664 24.8535 10.587 24.8535 10.3675V7.30599C24.8535 7.08652 25.0327 6.90704 25.2519 6.90704Z" fill="#61264F"/>
<path d="M31.3747 13.1445H34.0379C34.2131 13.1445 34.3563 13.288 34.3563 13.4639V16.1309C34.3563 16.3068 34.2131 16.4503 34.0379 16.4503H31.3747C31.1996 16.4503 31.0563 16.3068 31.0563 16.1309V13.4639C31.0563 13.288 31.1996 13.1445 31.3747 13.1445Z" fill="#61264F"/>
<path d="M37.5587 19.3914H39.834C39.966 19.3914 40.0738 19.4998 40.0738 19.6321V21.9105C40.0738 22.0432 39.966 22.1511 39.834 22.1511H37.5587C37.4267 22.1511 37.3185 22.0432 37.3185 21.9105V19.6321C37.3185 19.4998 37.4267 19.3914 37.5587 19.3914Z" fill="#61264F"/>
<path d="M31.7942 25.6252H33.6869C33.7763 25.6252 33.8499 25.6986 33.8499 25.7885V27.6842C33.8499 27.7737 33.7763 27.847 33.6869 27.847H31.7942C31.7044 27.847 31.6312 27.7737 31.6312 27.6842V25.7885C31.6312 25.6986 31.7044 25.6252 31.7942 25.6252Z" fill="#61264F"/>
<path d="M26.023 31.8603H27.5385C27.5861 31.8603 27.6247 31.8994 27.6247 31.9471V33.465C27.6247 33.5127 27.5861 33.5518 27.5385 33.5518H26.023C25.9749 33.5518 25.9363 33.5127 25.9363 33.465V31.9471C25.9363 31.8994 25.9749 31.8603 26.023 31.8603Z" fill="#61264F"/>
<path d="M20.2506 38.0896H21.3938C21.4005 38.0896 21.4055 38.0946 21.4055 38.1013V39.2464C21.4055 39.2527 21.4005 39.2581 21.3938 39.2581H20.2506C20.2443 39.2581 20.2389 39.2527 20.2389 39.2464V38.1013C20.2389 38.0946 20.2443 38.0896 20.2506 38.0896Z" fill="#61264F"/>
<path d="M26.776 17.3835C26.4177 17.3835 26.0719 17.4407 25.7477 17.5455C24.7481 17.7186 23.8006 16.704 24.0745 15.7167L24.0705 15.7127C24.1527 15.4222 24.1962 15.1159 24.1962 14.8001C24.1962 12.9417 22.6785 11.4216 20.8235 11.4216C18.968 11.4216 17.4503 12.9417 17.4503 14.8001C17.4503 15.6938 17.9613 16.3239 17.1723 17.1141C16.382 17.9057 15.7578 17.3912 14.8633 17.3912C13.0079 17.3912 11.4901 18.9114 11.4901 20.7693C11.4901 21.6504 12.0002 22.2944 11.2054 23.0905C10.4092 23.8884 9.76801 23.3765 8.88703 23.3765C8.57179 23.3765 8.26598 23.4206 7.9759 23.5029L7.97184 23.4984C6.75807 23.6999 6.31265 23.108 6.14831 22.3147V18.2961C6.14831 17.8949 5.82047 17.5666 5.41993 17.5666H0.728765C0.328232 17.5666 0 17.8949 0 18.2961V22.9952C0 23.3963 0.328233 23.7247 0.728765 23.7247H3.8815C4.96014 23.8227 6.03062 24.2252 5.63596 25.8381L5.63996 25.8421C5.55648 26.1394 5.51427 26.4461 5.51427 26.7551C5.51427 28.2087 6.44333 29.4559 7.73564 29.9295C8.09534 30.0617 8.48332 30.1332 8.88703 30.1332C10.7425 30.1328 12.2602 28.6135 12.2602 26.7551C12.2602 25.8718 11.7092 25.1567 12.4892 24.3759C13.2647 23.5992 13.9864 24.1479 14.8633 24.1479C16.7188 24.1479 18.2365 22.6277 18.2365 20.7698C18.2365 19.8563 17.6699 19.1871 18.4561 18.3995C19.2401 17.6143 19.9133 18.1783 20.8235 18.1783C21.1391 18.1783 21.4445 18.1346 21.735 18.0523L21.7387 18.0559C22.7324 17.7051 23.7885 18.6118 23.5927 19.6476C23.4702 19.9971 23.4032 20.3722 23.4032 20.7621C23.4037 21.6558 23.9138 22.2863 23.1253 23.0761C22.3345 23.8681 21.7104 23.3532 20.8158 23.3532C18.9604 23.3532 17.4431 24.8733 17.4426 26.7313C17.4426 27.6124 17.9532 28.2564 17.1584 29.0525C16.3663 29.8459 15.7547 29.3228 14.8557 29.3228C13.9316 29.3228 13.0905 29.7006 12.4798 30.3091C11.8651 30.9221 11.483 31.769 11.483 32.7009C11.483 34.5593 13.0007 36.0795 14.8557 36.0795C16.7111 36.0795 18.2289 34.5593 18.2289 32.7009C18.2289 31.7816 17.6541 31.1267 18.4418 30.3379C19.2173 29.5612 19.9389 30.1098 20.8158 30.1098C22.6713 30.1098 24.189 28.5897 24.189 26.7317C24.189 25.8178 23.6224 25.149 24.4086 24.362C25.1927 23.5762 25.8658 24.1407 26.776 24.1402C28.6315 24.1398 30.1488 22.6205 30.1488 20.7621C30.1488 18.9037 28.6315 17.3835 26.776 17.3835Z" fill="#25C7BC"/>
</svg>
