<svg width="20" height="20" viewBox="0 0 20 20" fill="none" xmlns="http://www.w3.org/2000/svg">
<path fill-rule="evenodd" clip-rule="evenodd" d="M5.83333 4.16667C5.83333 3.24619 6.57953 2.5 7.5 2.5H12.5C13.4205 2.5 14.1667 3.24619 14.1667 4.16667V15.8333H16.6667C17.1269 15.8333 17.5 16.2064 17.5 16.6667C17.5 17.1269 17.1269 17.5 16.6667 17.5H3.33333C2.8731 17.5 2.5 17.1269 2.5 16.6667C2.5 16.2064 2.8731 15.8333 3.33333 15.8333H5.83333V4.16667ZM12.5 12.5H10.8333C10.3731 12.5 10 12.8731 10 13.3333C10 13.7936 10.3731 14.1667 10.8333 14.1667H12.5V15.8333H7.5V14.1667H8.33333C8.79357 14.1667 9.16667 13.7936 9.16667 13.3333C9.16667 12.8731 8.79357 12.5 8.33333 12.5H7.5V11.6667H9.16667C9.6269 11.6667 10 11.2936 10 10.8333C10 10.3731 9.6269 10 9.16667 10H7.5V9.16667H8.33333C8.79357 9.16667 9.16667 8.79357 9.16667 8.33333C9.16667 7.8731 8.79357 7.5 8.33333 7.5H7.5V6.66667H9.16667C9.6269 6.66667 10 6.29357 10 5.83333C10 5.3731 9.6269 5 9.16667 5H7.5V4.16667H12.5V5H11.6667C11.2064 5 10.8333 5.3731 10.8333 5.83333C10.8333 6.29357 11.2064 6.66667 11.6667 6.66667H12.5V7.5H10.8333C10.3731 7.5 10 7.8731 10 8.33333C10 8.79357 10.3731 9.16667 10.8333 9.16667H12.5V10H11.6667C11.2064 10 10.8333 10.3731 10.8333 10.8333C10.8333 11.2936 11.2064 11.6667 11.6667 11.6667H12.5V12.5Z" fill="#7F396A"/>
</svg>
