<svg width="16" height="16" viewBox="0 0 16 16" fill="none" xmlns="http://www.w3.org/2000/svg">
<path fill-rule="evenodd" clip-rule="evenodd" d="M7.99992 5.16671C7.35559 5.16671 6.83325 4.64437 6.83325 4.00004C6.83325 3.35571 7.35559 2.83337 7.99992 2.83337C8.64425 2.83337 9.16659 3.35571 9.16659 4.00004C9.16659 4.64437 8.64425 5.16671 7.99992 5.16671ZM7.99992 9.16671C7.35559 9.16671 6.83325 8.64437 6.83325 8.00004C6.83325 7.35571 7.35559 6.83337 7.99992 6.83337C8.64425 6.83337 9.16659 7.35571 9.16659 8.00004C9.16659 8.64437 8.64425 9.16671 7.99992 9.16671ZM7.99992 13.1667C7.35559 13.1667 6.83325 12.6444 6.83325 12C6.83325 11.3557 7.35559 10.8334 7.99992 10.8334C8.64425 10.8334 9.16659 11.3557 9.16659 12C9.16659 12.6444 8.64425 13.1667 7.99992 13.1667Z" fill="#602650"/>
</svg>
