<svg width="20" height="20" viewBox="0 0 20 20" fill="none" xmlns="http://www.w3.org/2000/svg">
<g clip-path="url(#clip0_750_80)">
<path d="M16.7188 11.4531V5.62502C16.719 5.56996 16.7046 5.51581 16.6772 5.46807C16.6498 5.42032 16.6102 5.38068 16.5625 5.35315L8.98438 0.978146C8.93687 0.950719 8.88298 0.936279 8.82813 0.936279C8.77327 0.936279 8.71938 0.950719 8.67188 0.978146L1.09375 5.35315C1.04606 5.38068 1.0065 5.42032 0.979058 5.46807C0.95162 5.51581 0.937284 5.56996 0.937502 5.62502V14.375C0.937284 14.4301 0.95162 14.4842 0.979058 14.532C1.0065 14.5797 1.04606 14.6194 1.09375 14.6469L8.67188 19.0219C8.71938 19.0493 8.77327 19.0638 8.82813 19.0638C8.88298 19.0638 8.93687 19.0493 8.98438 19.0219L11.8313 17.3781C12.1861 17.8753 12.6506 18.2842 13.1888 18.5731C13.7269 18.8619 14.3244 19.0231 14.9348 19.0441C15.5453 19.0652 16.1524 18.9454 16.7091 18.6942C17.2659 18.443 17.7574 18.0671 18.1456 17.5955C18.5338 17.1239 18.8082 16.5693 18.9478 15.9746C19.0873 15.38 19.0881 14.7612 18.9502 14.1662C18.8122 13.5711 18.5392 13.0158 18.1523 12.5432C17.7653 12.0706 17.2748 11.6933 16.7188 11.4406V11.4531ZM8.82813 1.6094L15.7813 5.62502L12.2938 7.63752L5.8375 3.33752L8.82813 1.6094ZM8.82813 9.64065L1.875 5.62502L5.23438 3.6844L11.6875 7.98752L8.82813 9.64065ZM11.0938 15.0781C11.0945 15.6898 11.2368 16.2931 11.5094 16.8406L9.14063 18.2094V10.1813L11.9531 8.5469V10.9813C11.9531 11.0642 11.9861 11.1436 12.0447 11.2022C12.1033 11.2608 12.1827 11.2938 12.2656 11.2938C12.3485 11.2938 12.428 11.2608 12.4866 11.2022C12.5452 11.1436 12.5781 11.0642 12.5781 10.9813V8.18752L16.0781 6.16565V11.2313C15.7471 11.1408 15.4056 11.0946 15.0625 11.0938C14.0087 11.0987 12.9998 11.5206 12.2561 12.2672C11.5125 13.0138 11.0946 14.0244 11.0938 15.0781ZM17.0313 13.8281L14.875 16.7C14.8469 16.7376 14.8106 16.7683 14.769 16.79C14.7273 16.8116 14.6813 16.8236 14.6344 16.825C14.5892 16.825 14.5446 16.8152 14.5036 16.7964C14.4626 16.7775 14.4262 16.7499 14.3969 16.7156L13.125 15.2219C13.0715 15.1585 13.0455 15.0764 13.0525 14.9938C13.0595 14.9112 13.0991 14.8347 13.1625 14.7813C13.2259 14.7278 13.3079 14.7017 13.3906 14.7088C13.4732 14.7158 13.5497 14.7554 13.6031 14.8188L14.6188 16.0125L16.5625 13.4563C16.5865 13.4216 16.6174 13.3921 16.6531 13.3697C16.6888 13.3473 16.7288 13.3323 16.7704 13.3257C16.8121 13.3191 16.8547 13.321 16.8956 13.3313C16.9366 13.3416 16.975 13.3601 17.0085 13.3857C17.0421 13.4112 17.0702 13.4433 17.091 13.48C17.1119 13.5167 17.1251 13.5572 17.1298 13.5992C17.1346 13.6411 17.1308 13.6836 17.1187 13.724C17.1066 13.7644 17.0864 13.802 17.0594 13.8344L17.0313 13.8281Z" fill="#18817A"/>
</g>
<defs>
<clipPath id="clip0_750_80">
<rect width="20" height="20" fill="white"/>
</clipPath>
</defs>
</svg>
