<svg width="24" height="24" viewBox="0 0 24 24" fill="none" xmlns="http://www.w3.org/2000/svg">
<path fill-rule="evenodd" clip-rule="evenodd" d="M10.7287 2.71083C11.7063 1.7332 13.3261 1.86029 14.1393 2.97843L16.9675 6.86722C17.0137 6.93067 17.0695 6.98649 17.133 7.03264L21.0217 9.86084C22.1399 10.674 22.267 12.2939 21.2893 13.2715L17.8528 16.708C16.835 17.7258 15.1364 17.5394 14.3636 16.325L13.1473 14.4137L6.27494 21.2862C5.29504 22.2661 3.70633 22.2662 2.72634 21.2864C1.73963 20.2999 1.74717 18.6979 2.74314 17.7207L9.61539 10.978L7.6067 9.63886C6.42531 8.85127 6.2598 7.17975 7.26379 6.17576L10.7287 2.71083ZM12.9262 3.86069C12.6552 3.48798 12.1152 3.44561 11.7893 3.77149L8.32445 7.23642C7.98978 7.57108 8.04495 8.12826 8.43875 8.39079L9.06821 8.81043L13.3859 4.49278L12.9262 3.86069ZM14.2791 5.72091L10.341 9.65896L12.6529 11.2002C12.9134 11.3739 13.1349 11.6001 13.303 11.8644L14.3575 13.5214L18.209 9.66995L16.2507 8.24574C16.0603 8.1073 15.8929 7.93984 15.7544 7.74947L14.2791 5.72091ZM19.4371 10.5631L15.1824 14.8177L15.6291 15.5196C15.8867 15.9244 16.4529 15.9866 16.7922 15.6473L20.2287 12.2108C20.5546 11.885 20.5122 11.345 20.1395 11.0739L19.4371 10.5631ZM5.21427 20.2256L12.3224 13.1173L12.0375 12.6697C11.9815 12.5816 11.9077 12.5062 11.8208 12.4483L10.8906 11.8282L3.79366 18.7914C3.39305 19.1845 3.39001 19.8288 3.7869 20.2257C4.18109 20.6198 4.82012 20.6197 5.21427 20.2256ZM14 19.75C14 19.3357 14.3358 19 14.75 19H19.25C19.6642 19 20 19.3357 20 19.75C20 20.1642 19.6642 20.5 19.25 20.5H21.25C21.6642 20.5 22 20.8357 22 21.25C22 21.6642 21.6642 22 21.25 22H12.75C12.3358 22 12 21.6642 12 21.25C12 20.8357 12.3358 20.5 12.75 20.5H14.75C14.3358 20.5 14 20.1642 14 19.75Z" fill="#602650"/>
</svg>
