<svg width="20" height="20" viewBox="0 0 20 20" fill="none" xmlns="http://www.w3.org/2000/svg">
<g clip-path="url(#clip0_750_57)">
<path d="M13.7606 15.3887H16.6518C16.8136 15.3887 16.9448 15.5198 16.9448 15.6816V16.4745C16.9448 16.6363 16.8136 16.7675 16.6518 16.7675H13.7606C13.5988 16.7675 13.4677 16.6363 13.4677 16.4745V15.6816C13.4677 15.5198 13.5988 15.3887 13.7606 15.3887ZM15.4992 11.9391C15.4992 11.7773 15.368 11.6461 15.2062 11.6461C15.0444 11.6461 14.9133 11.7773 14.9133 11.9391V12.0454C14.5745 12.1495 14.3276 12.4653 14.3276 12.8377C14.3276 13.2946 14.6993 13.6663 15.1563 13.6663H15.2561C15.3899 13.6663 15.4988 13.7752 15.4988 13.909C15.4988 14.0429 15.3899 14.1518 15.2561 14.1518H15.2062C15.0724 14.1518 14.9635 14.0429 14.9635 13.909C14.9635 13.7472 14.8323 13.6161 14.6705 13.6161C14.5087 13.6161 14.3775 13.7472 14.3775 13.909C14.3775 14.2629 14.6005 14.5656 14.9132 14.6842V14.8076C14.9132 14.9694 15.0444 15.1005 15.2062 15.1005C15.368 15.1005 15.4992 14.9694 15.4992 14.8076V14.7013C15.8379 14.5972 16.0848 14.2814 16.0848 13.909C16.0848 13.4521 15.713 13.0804 15.2561 13.0804H15.1563C15.0224 13.0804 14.9136 12.9715 14.9136 12.8377C14.9136 12.7038 15.0224 12.595 15.1563 12.595H15.2062C15.34 12.595 15.4489 12.7038 15.4489 12.8377C15.4489 12.9995 15.58 13.1306 15.7418 13.1306C15.9036 13.1306 16.0348 12.9995 16.0348 12.8377C16.0348 12.4838 15.8119 12.1811 15.4992 12.0625L15.4992 11.9391ZM19.6309 14.6065L18.2327 15.4138V16.9312C18.2327 17.3517 17.8906 17.6938 17.4701 17.6938H13.3544V18.1395C13.3544 18.7 12.8984 19.156 12.3379 19.156H1.05552C0.495009 19.156 0.039032 18.7 0.039032 18.1395V2.53246C0.039032 1.60129 0.79661 0.84375 1.72774 0.84375H14.7772C15.8847 0.84375 16.7858 1.83609 16.7858 3.0559V7.27574C16.7858 7.83625 16.3299 8.29223 15.7693 8.29223H13.3543V11.2507L13.9254 10.6473C13.8069 10.4357 13.7391 10.1921 13.7391 9.93289C13.7391 9.12391 14.3972 8.46574 15.2062 8.46574C16.0152 8.46574 16.6734 9.12391 16.6734 9.93289C16.6734 9.95898 16.6725 9.98512 16.6711 10.0112L17.8427 10.3514C17.9153 10.3725 17.977 10.4208 18.0147 10.4863L19.8727 13.7043C20.0547 14.0197 19.9463 14.4244 19.6309 14.6065ZM14.325 9.93293C14.325 10.0208 14.3381 10.1057 14.3622 10.1858L14.775 9.74961C14.89 9.62816 15.0391 9.56398 15.2063 9.56398C15.3449 9.56398 15.4708 9.60875 15.5754 9.69305L16.0826 9.84031C16.0362 9.39777 15.6609 9.05172 15.2063 9.05172C14.7204 9.05172 14.325 9.44703 14.325 9.93293ZM12.7684 17.673C12.4316 17.594 12.1798 17.2918 12.1798 16.9312V12.6086C12.1798 12.5337 12.2084 12.4616 12.2599 12.4073L12.7684 11.8699V3.0559C12.7684 2.4134 13.0186 1.83422 13.4172 1.42969H1.72774C1.11966 1.42969 0.62497 1.92441 0.62497 2.53246V18.1395C0.62497 18.3769 0.818095 18.57 1.05552 18.57H12.3379C12.5753 18.57 12.7684 18.3769 12.7684 18.1395V17.673ZM17.6468 12.7253L15.212 10.1524C15.2109 10.1513 15.2101 10.1505 15.2095 10.15C15.209 10.15 15.2078 10.1499 15.2063 10.1499C15.2047 10.1499 15.2036 10.15 15.2028 10.1501C15.2024 10.1505 15.2016 10.1513 15.2005 10.1525L14.7158 10.6646C14.8561 10.759 15.0248 10.8141 15.2063 10.8141C15.3681 10.8141 15.4992 10.9453 15.4992 11.1071C15.4992 11.2689 15.3681 11.4001 15.2063 11.4001C14.869 11.4001 14.5581 11.2854 14.3101 11.0933L12.7658 12.7252V16.9311C12.7658 17.0269 12.8467 17.1078 12.9424 17.1078H17.4701C17.5659 17.1078 17.6468 17.0269 17.6468 16.9311V12.7253ZM10.825 12.7384H5.2938C5.132 12.7384 5.00083 12.8695 5.00083 13.0313C5.00083 13.1932 5.132 13.3243 5.2938 13.3243H10.825C10.9868 13.3243 11.1179 13.1932 11.1179 13.0313C11.1179 12.8695 10.9868 12.7384 10.825 12.7384ZM10.825 9.70691H5.2938C5.132 9.70691 5.00083 9.83805 5.00083 9.99988C5.00083 10.1617 5.132 10.2929 5.2938 10.2929H10.825C10.9868 10.2929 11.1179 10.1617 11.1179 9.99988C11.1179 9.83805 10.9868 9.70691 10.825 9.70691ZM10.825 10.8398H5.2938C5.132 10.8398 5.00083 10.9709 5.00083 11.1328C5.00083 11.2946 5.132 11.4257 5.2938 11.4257H10.825C10.9868 11.4257 11.1179 11.2946 11.1179 11.1328C11.1179 10.9709 10.9868 10.8398 10.825 10.8398ZM3.90153 12.5537H2.73747C2.48274 12.5537 2.27548 12.7609 2.27548 13.0157V14.1798C2.27548 14.4345 2.48274 14.6418 2.73747 14.6418H3.90157C4.15634 14.6418 4.36364 14.4345 4.36364 14.1798V13.0157C4.3636 12.7609 4.15634 12.5537 3.90153 12.5537ZM3.90153 9.52227H2.73747C2.48274 9.52227 2.27548 9.72953 2.27548 9.98426V11.1484C2.27548 11.4031 2.48274 11.6104 2.73747 11.6104H3.90157C4.15634 11.6104 4.36364 11.4031 4.36364 11.1484V9.98426C4.3636 9.72953 4.15634 9.52227 3.90153 9.52227ZM10.825 16.9027H5.2938C5.132 16.9027 5.00083 17.0338 5.00083 17.1956C5.00083 17.3575 5.132 17.4886 5.2938 17.4886H10.825C10.9868 17.4886 11.1179 17.3575 11.1179 17.1956C11.1179 17.0338 10.9868 16.9027 10.825 16.9027ZM10.825 15.7698H5.2938C5.132 15.7698 5.00083 15.9009 5.00083 16.0627C5.00083 16.2246 5.132 16.3557 5.2938 16.3557H10.825C10.9868 16.3557 11.1179 16.2246 11.1179 16.0627C11.1179 15.9009 10.9868 15.7698 10.825 15.7698ZM10.825 13.8712H5.2938C5.132 13.8712 5.00083 14.0024 5.00083 14.1642C5.00083 14.3261 5.132 14.4572 5.2938 14.4572H10.825C10.9868 14.4572 11.1179 14.3261 11.1179 14.1642C11.1179 14.0024 10.9868 13.8712 10.825 13.8712ZM3.90153 15.5852H2.73747C2.48274 15.5852 2.27548 15.7924 2.27548 16.0471V17.2112C2.27548 17.466 2.48274 17.6733 2.73747 17.6733H3.90157C4.15634 17.6733 4.36364 17.466 4.36364 17.2112V16.0471C4.3636 15.7924 4.15634 15.5852 3.90153 15.5852ZM5.72837 6.39937H4.35536C4.19356 6.39937 4.06239 6.53051 4.06239 6.69234V7.52344C4.06239 7.68527 4.19356 7.81641 4.35536 7.81641H5.72837C5.89017 7.81641 6.02134 7.68527 6.02134 7.52344V6.69234C6.02134 6.53051 5.8902 6.39937 5.72837 6.39937ZM3.00849 8.39406V3.95586C3.00849 3.92207 3.01434 3.88848 3.02579 3.85668L3.5222 2.47672C3.56403 2.36043 3.67431 2.28293 3.79786 2.28293H9.59556C9.71911 2.28293 9.82938 2.36043 9.87122 2.47672L10.3676 3.85668C10.3791 3.88848 10.3849 3.92207 10.3849 3.95586V8.39406C10.3849 8.5559 10.2538 8.68703 10.092 8.68703H3.30145C3.13966 8.68703 3.00849 8.5559 3.00849 8.39406ZM3.59442 8.10109H9.79903V4.24883H7.84149V5.19852C7.84149 5.30547 7.78317 5.40398 7.68938 5.45539C7.59556 5.5068 7.48118 5.50305 7.39099 5.44555L6.69669 5.00285L6.00243 5.44555C5.9545 5.47609 5.89977 5.49148 5.84489 5.49148C5.79649 5.49148 5.74802 5.47949 5.70407 5.45539C5.61028 5.40398 5.55196 5.30547 5.55196 5.19852V4.24883H3.59442V8.10109Z" fill="#18817A"/>
</g>
<defs>
<clipPath id="clip0_750_57">
<rect width="20" height="20" fill="white"/>
</clipPath>
</defs>
</svg>
