<svg width="24" height="24" viewBox="0 0 24 24" fill="none" xmlns="http://www.w3.org/2000/svg">
<path d="M3 11.5C3 16.4706 7.02944 20.5 12 20.5C16.9706 20.5 21 16.4706 21 11.5C21 9.79039 20.5218 8.14945 19.6338 6.73081C19.3444 6.26851 19.0136 5.8335 18.6461 5.43118L18.44 5.2155C18.3051 5.08212 18.1184 4.99895 17.9123 4.99895C17.4981 4.99895 17.1623 5.33473 17.1623 5.74895C17.1623 5.92793 17.225 6.09227 17.3296 6.2212L17.3642 6.25827C17.7413 6.64412 18.0761 7.06948 18.3623 7.52668C19.1021 8.70844 19.5 10.0739 19.5 11.5C19.5 15.6421 16.1421 19 12 19C7.85786 19 4.5 15.6421 4.5 11.5C4.5 9.10271 5.63281 6.89953 7.50196 5.49775L7.50209 8.25419C7.50209 8.6684 7.83788 9.00419 8.25209 9.00419C8.63179 9.00419 8.94558 8.72203 8.99525 8.35596L9.00209 8.25419V3.75C9.00209 3.3703 8.71994 3.05651 8.35386 3.00685L8.25209 3H3.75209C3.33788 3 3.00209 3.33579 3.00209 3.75C3.00209 4.1297 3.28425 4.44349 3.65032 4.49315L3.75209 4.5L6.34247 4.49982C4.25563 6.18669 3 8.73672 3 11.5Z" fill="white"/>
</svg>
