<svg width="16" height="16" viewBox="0 0 16 16" fill="none" xmlns="http://www.w3.org/2000/svg">
<path d="M1.47993 6.14634L4.47644 3.14964C4.65381 2.97225 4.93134 2.95598 5.12708 3.10092L5.18317 3.14924L8.18641 6.14594C8.38188 6.34099 8.38223 6.65757 8.18718 6.85305C8.00986 7.03075 7.7321 7.04719 7.5362 6.90217L7.48007 6.85382L5.3315 4.70925L5.33194 12.5065C5.33194 12.7596 5.14383 12.9688 4.89978 13.0019L4.83194 13.0065C4.57881 13.0065 4.36961 12.8184 4.3365 12.5743L4.33194 12.5065L4.3315 4.70792L2.18706 6.85342C2.00956 7.03094 1.73178 7.04708 1.53603 6.90185L1.47995 6.85344C1.30244 6.67594 1.28629 6.39816 1.43152 6.20242L1.47993 6.14634L4.47644 3.14964L1.47993 6.14634ZM11.0996 3.00115L11.1674 2.99658C11.4205 2.99658 11.6297 3.18468 11.6628 3.42874L11.6674 3.49658L11.6668 11.2939L13.8131 9.14647C13.9906 8.96889 14.2683 8.95264 14.4641 9.09779L14.5202 9.14618C14.6978 9.32362 14.7141 9.60139 14.5689 9.79719L14.5205 9.85329L11.523 12.8533C11.3456 13.0309 11.0678 13.0471 10.872 12.902L10.8159 12.8536L7.81342 9.85358C7.61808 9.6584 7.61795 9.34182 7.81313 9.14647C7.99057 8.96889 8.26833 8.95264 8.46414 9.09779L8.52024 9.14618L10.6668 11.2912L10.6674 3.49658C10.6674 3.24345 10.8555 3.03425 11.0996 3.00115L11.1674 2.99658L11.0996 3.00115Z" fill="#CFD2CD"/>
</svg>
