<svg width="24" height="24" viewBox="0 0 24 24" fill="none" xmlns="http://www.w3.org/2000/svg">
<path d="M10.6667 9.9375C10.6667 9.55781 10.9651 9.25 11.3333 9.25H16C16.3681 9.25 16.6667 9.55781 16.6667 9.9375C16.6667 10.3172 16.3681 10.625 16 10.625H11.3333C10.9651 10.625 10.6667 10.3172 10.6667 9.9375ZM10.6667 14.0625C10.6667 13.6829 10.9651 13.375 11.3333 13.375H16C16.3681 13.375 16.6667 13.6829 16.6667 14.0625C16.6667 14.4421 16.3681 14.75 16 14.75H11.3333C10.9651 14.75 10.6667 14.4421 10.6667 14.0625ZM10.6667 18.1875C10.6667 17.8079 10.9651 17.5 11.3333 17.5H16C16.3681 17.5 16.6667 17.8079 16.6667 18.1875C16.6667 18.5671 16.3681 18.875 16 18.875H11.3333C10.9651 18.875 10.6667 18.5671 10.6667 18.1875ZM9.33333 9.9375C9.33333 10.507 8.88561 10.9688 8.33333 10.9688C7.78105 10.9688 7.33333 10.507 7.33333 9.9375C7.33333 9.36796 7.78105 8.90625 8.33333 8.90625C8.88561 8.90625 9.33333 9.36796 9.33333 9.9375ZM9.33333 14.0625C9.33333 14.632 8.88561 15.0938 8.33333 15.0938C7.78105 15.0938 7.33333 14.632 7.33333 14.0625C7.33333 13.493 7.78105 13.0312 8.33333 13.0312C8.88561 13.0312 9.33333 13.493 9.33333 14.0625ZM8.33333 19.2188C8.88561 19.2188 9.33333 18.757 9.33333 18.1875C9.33333 17.618 8.88561 17.1562 8.33333 17.1562C7.78105 17.1562 7.33333 17.618 7.33333 18.1875C7.33333 18.757 7.78105 19.2188 8.33333 19.2188ZM8.1138 2.375C8.38836 1.57393 9.12919 1 10 1H14C14.8708 1 15.6116 1.57393 15.8861 2.375H18C19.1045 2.375 20 3.29841 20 4.4375V20.9375C20 22.0765 19.1045 23 18 23H6C4.89543 23 4 22.0765 4 20.9375V4.4375C4 3.29841 4.89543 2.375 6 2.375H8.1138ZM10 2.375C9.63181 2.375 9.33333 2.68281 9.33333 3.0625C9.33333 3.44219 9.63181 3.75 10 3.75H14C14.3681 3.75 14.6667 3.44219 14.6667 3.0625C14.6667 2.68281 14.3681 2.375 14 2.375H10ZM8.1138 3.75H6C5.63181 3.75 5.33333 4.05781 5.33333 4.4375V20.9375C5.33333 21.3171 5.63181 21.625 6 21.625H18C18.3681 21.625 18.6667 21.3171 18.6667 20.9375V4.4375C18.6667 4.05781 18.3681 3.75 18 3.75H15.8861C15.6116 4.55107 14.8708 5.125 14 5.125H10C9.12919 5.125 8.38836 4.55107 8.1138 3.75Z" fill="#602650"/>
</svg>
