<svg width="16" height="16" viewBox="0 0 16 16" fill="none" xmlns="http://www.w3.org/2000/svg">
<path d="M12.3282 1.55355L14.4474 3.67273C15.0331 4.25852 15.0331 5.20827 14.4474 5.79405L12.7244 7.51667C13.4464 7.62498 14 8.24784 14 9V12.5C14 13.3284 13.3284 14 12.5 14H3.5C2.67157 14 2 13.3284 2 12.5V3.5C2 2.67157 2.67157 2 3.5 2H7C7.75263 2 8.37579 2.5543 8.48353 3.27693L10.2069 1.55355C10.7926 0.967765 11.7424 0.967765 12.3282 1.55355ZM3 12.5C3 12.7761 3.22386 13 3.5 13L7.49933 12.9995L7.5 8.5L3 8.49955V12.5ZM8.49933 12.9995L12.5 13C12.7761 13 13 12.7761 13 12.5V9C13 8.72386 12.7761 8.5 12.5 8.5L8.49933 8.49955V12.9995ZM7 3H3.5C3.22386 3 3 3.22386 3 3.5V7.49955H7.5V3.5C7.5 3.22386 7.27614 3 7 3ZM8.5 6.20621V7.5L9.79333 7.49955L8.5 6.20621ZM10.914 2.26066L8.79478 4.37984C8.59951 4.5751 8.59951 4.89168 8.79478 5.08695L10.914 7.20613C11.1092 7.40139 11.4258 7.40139 11.6211 7.20613L13.7402 5.08695C13.9355 4.89168 13.9355 4.5751 13.7402 4.37984L11.6211 2.26066C11.4258 2.0654 11.1092 2.0654 10.914 2.26066Z" fill="#602650"/>
</svg>
