<?xml version="1.0" encoding="UTF-8"?>
<svg xmlns="http://www.w3.org/2000/svg" xmlns:xlink="http://www.w3.org/1999/xlink" width="40px" height="40px" viewBox="0 0 40 40" version="1.1">
<g id="surface1">
<path style=" stroke:none;fill-rule:nonzero;fill:rgb(14.509805%,78.039217%,73.333335%);fill-opacity:1;" d="M 20.546875 9.535156 C 20.621094 9.535156 20.691406 9.535156 20.769531 9.535156 C 20.941406 9.542969 21.089844 9.558594 21.257812 9.601562 C 21.257812 9.636719 21.257812 9.675781 21.257812 9.714844 C 21.296875 9.71875 21.339844 9.726562 21.382812 9.734375 C 21.554688 9.773438 21.664062 9.835938 21.8125 9.933594 C 21.875 9.976562 21.875 9.976562 21.945312 10.019531 C 22.0625 10.121094 22.113281 10.199219 22.171875 10.34375 C 22.210938 10.34375 22.246094 10.34375 22.285156 10.34375 C 22.777344 10.921875 22.835938 11.488281 22.800781 12.230469 C 22.789062 12.324219 22.78125 12.421875 22.769531 12.519531 C 22.746094 12.726562 22.753906 12.882812 22.800781 13.085938 C 22.855469 13.105469 22.914062 13.125 22.972656 13.144531 C 22.972656 13.179688 22.972656 13.21875 22.972656 13.257812 C 23.007812 13.257812 23.046875 13.257812 23.085938 13.257812 C 23.085938 13.292969 23.085938 13.332031 23.085938 13.371094 C 23.132812 13.371094 23.179688 13.371094 23.230469 13.371094 C 23.410156 13.367188 23.585938 13.367188 23.765625 13.363281 C 23.878906 13.363281 23.996094 13.363281 24.109375 13.363281 C 24.816406 13.359375 25.335938 13.429688 25.871094 13.914062 C 26.382812 14.484375 26.617188 15 26.628906 15.769531 C 26.601562 16.253906 26.332031 16.824219 26.023438 17.195312 C 25.941406 17.257812 25.941406 17.257812 25.828125 17.257812 C 25.828125 17.292969 25.828125 17.332031 25.828125 17.371094 C 25.714844 17.449219 25.714844 17.449219 25.542969 17.542969 C 25.507812 17.5625 25.46875 17.582031 25.433594 17.605469 C 25.214844 17.722656 25.054688 17.804688 24.800781 17.769531 C 24.800781 17.808594 24.800781 17.847656 24.800781 17.886719 C 24.640625 17.886719 24.480469 17.886719 24.316406 17.890625 C 24.273438 17.890625 24.226562 17.890625 24.179688 17.890625 C 24.0625 17.890625 23.945312 17.890625 23.828125 17.886719 C 23.808594 17.867188 23.789062 17.847656 23.769531 17.828125 C 23.667969 17.824219 23.566406 17.820312 23.464844 17.820312 C 23.410156 17.820312 23.351562 17.820312 23.296875 17.820312 C 23.136719 17.820312 23.136719 17.820312 22.972656 17.886719 C 22.972656 17.921875 22.972656 17.960938 22.972656 18 C 22.929688 18.03125 22.929688 18.03125 22.890625 18.0625 C 22.753906 18.230469 22.746094 18.421875 22.742188 18.628906 C 22.75 18.671875 22.761719 18.714844 22.769531 18.757812 C 22.902344 19.433594 22.824219 20.042969 22.464844 20.628906 C 22.113281 21.144531 21.675781 21.453125 21.085938 21.65625 C 20.699219 21.71875 20.328125 21.730469 19.941406 21.65625 C 19.925781 21.636719 19.90625 21.621094 19.886719 21.601562 C 19.570312 21.570312 19.570312 21.570312 19.292969 21.6875 C 19.261719 21.714844 19.230469 21.742188 19.199219 21.769531 C 19.164062 21.769531 19.125 21.769531 19.085938 21.769531 C 19.085938 21.808594 19.085938 21.847656 19.085938 21.886719 C 19.046875 21.886719 19.011719 21.886719 18.972656 21.886719 C 18.972656 21.941406 18.976562 21.996094 18.976562 22.054688 C 18.984375 22.261719 18.988281 22.46875 18.992188 22.679688 C 18.992188 22.769531 18.996094 22.855469 18.996094 22.945312 C 19.015625 23.542969 18.984375 24.007812 18.628906 24.515625 C 18.554688 24.59375 18.476562 24.667969 18.398438 24.742188 C 18.363281 24.789062 18.328125 24.839844 18.292969 24.886719 C 18.152344 25.050781 18.023438 25.121094 17.832031 25.214844 C 17.773438 25.242188 17.714844 25.269531 17.65625 25.300781 C 17.144531 25.511719 16.402344 25.519531 15.886719 25.3125 C 15.671875 25.207031 15.464844 25.09375 15.257812 24.972656 C 15.257812 24.933594 15.257812 24.894531 15.257812 24.855469 C 15.21875 24.855469 15.183594 24.855469 15.144531 24.855469 C 15.144531 24.820312 15.144531 24.78125 15.144531 24.742188 C 15.105469 24.742188 15.066406 24.742188 15.027344 24.742188 C 14.878906 24.542969 14.753906 24.328125 14.628906 24.113281 C 14.605469 24.078125 14.585938 24.042969 14.5625 24.003906 C 14.355469 23.566406 14.382812 22.875 14.515625 22.40625 C 14.644531 22.089844 14.859375 21.796875 15.085938 21.542969 C 15.140625 21.523438 15.199219 21.503906 15.257812 21.484375 C 15.277344 21.429688 15.292969 21.371094 15.3125 21.3125 C 15.480469 21.195312 15.5625 21.144531 15.769531 21.144531 C 15.769531 21.105469 15.769531 21.066406 15.769531 21.027344 C 16.304688 20.875 16.765625 20.800781 17.3125 20.914062 C 17.617188 20.941406 17.804688 20.925781 18.058594 20.742188 C 18.132812 20.703125 18.210938 20.664062 18.285156 20.628906 C 18.285156 20.574219 18.28125 20.523438 18.28125 20.464844 C 18.277344 20.265625 18.273438 20.0625 18.269531 19.859375 C 18.269531 19.773438 18.265625 19.6875 18.265625 19.601562 C 18.25 19.050781 18.253906 18.535156 18.570312 18.058594 C 18.695312 17.980469 18.695312 17.980469 18.800781 17.941406 C 18.800781 17.90625 18.800781 17.867188 18.800781 17.828125 C 19.0625 17.515625 19.425781 17.277344 19.828125 17.199219 C 19.96875 17.195312 20.109375 17.195312 20.25 17.195312 C 20.3125 17.195312 20.3125 17.195312 20.371094 17.195312 C 20.5 17.195312 20.628906 17.195312 20.757812 17.195312 C 20.84375 17.195312 20.929688 17.195312 21.019531 17.195312 C 21.230469 17.199219 21.445312 17.199219 21.65625 17.199219 C 21.65625 17.164062 21.65625 17.125 21.65625 17.085938 C 21.695312 17.085938 21.734375 17.085938 21.769531 17.085938 C 21.785156 17.050781 21.800781 17.015625 21.8125 16.980469 C 21.898438 16.835938 21.964844 16.808594 22.113281 16.742188 C 22.105469 16.578125 22.097656 16.410156 22.089844 16.242188 C 22.085938 16.195312 22.085938 16.148438 22.082031 16.101562 C 22.082031 16.054688 22.078125 16.007812 22.074219 15.960938 C 22.074219 15.917969 22.070312 15.878906 22.070312 15.835938 C 22.058594 15.714844 22.03125 15.601562 22 15.484375 C 22.039062 15.484375 22.074219 15.484375 22.113281 15.484375 C 22.113281 15.128906 22.113281 14.769531 22.113281 14.398438 C 22.078125 14.398438 22.039062 14.398438 22 14.398438 C 21.878906 14.292969 21.878906 14.292969 21.769531 14.171875 C 21.769531 14.132812 21.769531 14.097656 21.769531 14.058594 C 20.941406 14.058594 20.113281 14.058594 19.257812 14.058594 C 19.257812 14.09375 19.257812 14.132812 19.257812 14.171875 C 19.210938 14.214844 19.164062 14.253906 19.117188 14.296875 C 18.9375 14.496094 18.9375 14.578125 18.949219 14.84375 C 18.953125 14.917969 18.953125 14.988281 18.953125 15.066406 C 18.957031 15.144531 18.960938 15.222656 18.964844 15.300781 C 19.003906 16.378906 19.003906 16.378906 18.6875 16.855469 C 18.648438 16.855469 18.609375 16.855469 18.570312 16.855469 C 18.566406 16.890625 18.5625 16.921875 18.558594 16.953125 C 18.476562 17.199219 18.324219 17.34375 18.113281 17.484375 C 18.058594 17.484375 18 17.484375 17.941406 17.484375 C 17.941406 17.523438 17.941406 17.5625 17.941406 17.601562 C 17.375 17.914062 16.863281 17.933594 16.230469 17.886719 C 16.210938 17.867188 16.191406 17.847656 16.171875 17.828125 C 16.074219 17.816406 15.980469 17.804688 15.882812 17.796875 C 15.828125 17.792969 15.777344 17.785156 15.722656 17.78125 C 15.683594 17.777344 15.640625 17.773438 15.601562 17.769531 C 15.601562 17.808594 15.601562 17.847656 15.601562 17.886719 C 15.542969 17.886719 15.488281 17.886719 15.429688 17.886719 C 15.429688 17.921875 15.429688 17.960938 15.429688 18 C 15.371094 18.046875 15.371094 18.046875 15.316406 18.097656 C 15.160156 18.273438 15.175781 18.363281 15.183594 18.59375 C 15.1875 18.699219 15.1875 18.699219 15.1875 18.808594 C 15.191406 18.921875 15.191406 18.921875 15.195312 19.035156 C 15.238281 20.246094 15.238281 20.246094 14.855469 20.742188 C 14.820312 20.742188 14.78125 20.742188 14.742188 20.742188 C 14.730469 20.773438 14.71875 20.804688 14.703125 20.839844 C 14.449219 21.285156 13.980469 21.492188 13.519531 21.679688 C 12.691406 21.820312 12.136719 21.609375 11.429688 21.199219 C 11.429688 21.164062 11.429688 21.125 11.429688 21.085938 C 11.394531 21.074219 11.363281 21.0625 11.328125 21.050781 C 11.152344 20.941406 11.09375 20.8125 10.992188 20.636719 C 10.960938 20.574219 10.925781 20.515625 10.890625 20.453125 C 10.617188 19.949219 10.53125 19.40625 10.6875 18.84375 C 10.746094 18.621094 10.769531 18.457031 10.742188 18.230469 C 10.632812 18.042969 10.632812 18.042969 10.515625 17.886719 C 10.515625 17.847656 10.515625 17.808594 10.515625 17.769531 C 10.167969 17.722656 9.832031 17.707031 9.484375 17.703125 C 9.375 17.699219 9.265625 17.699219 9.15625 17.699219 C 8.988281 17.695312 8.816406 17.691406 8.644531 17.691406 C 8.480469 17.691406 8.316406 17.6875 8.148438 17.683594 C 8.097656 17.683594 8.046875 17.683594 7.996094 17.683594 C 7.722656 17.679688 7.535156 17.664062 7.3125 17.484375 C 7.234375 17.328125 7.246094 17.199219 7.246094 17.019531 C 7.242188 16.949219 7.242188 16.875 7.242188 16.796875 C 7.242188 16.71875 7.242188 16.636719 7.238281 16.554688 C 7.238281 16.496094 7.238281 16.496094 7.238281 16.433594 C 7.238281 16.21875 7.234375 16.003906 7.234375 15.789062 C 7.234375 15.609375 7.230469 15.433594 7.226562 15.253906 C 7.226562 15.039062 7.222656 14.824219 7.222656 14.609375 C 7.222656 14.527344 7.222656 14.449219 7.21875 14.367188 C 7.21875 14.25 7.21875 14.136719 7.21875 14.023438 C 7.214844 13.957031 7.214844 13.890625 7.214844 13.824219 C 7.257812 13.65625 7.257812 13.65625 7.410156 13.523438 C 7.605469 13.425781 7.722656 13.398438 7.9375 13.398438 C 8.003906 13.398438 8.066406 13.398438 8.136719 13.398438 C 8.238281 13.398438 8.238281 13.398438 8.347656 13.398438 C 8.417969 13.398438 8.492188 13.398438 8.566406 13.398438 C 8.71875 13.398438 8.871094 13.398438 9.023438 13.398438 C 9.21875 13.398438 9.414062 13.398438 9.609375 13.398438 C 9.792969 13.398438 9.980469 13.398438 10.167969 13.398438 C 10.238281 13.398438 10.308594 13.398438 10.378906 13.398438 C 11.007812 13.402344 11.007812 13.402344 11.257812 13.65625 C 11.40625 13.945312 11.390625 14.261719 11.394531 14.582031 C 11.394531 14.636719 11.394531 14.691406 11.394531 14.75 C 11.398438 14.925781 11.402344 15.105469 11.402344 15.28125 C 11.40625 15.460938 11.410156 15.636719 11.410156 15.8125 C 11.414062 15.921875 11.414062 16.03125 11.417969 16.144531 C 11.421875 16.425781 11.4375 16.695312 11.484375 16.972656 C 11.523438 16.972656 11.5625 16.972656 11.601562 16.972656 C 11.601562 17.007812 11.601562 17.046875 11.601562 17.085938 C 11.636719 17.085938 11.675781 17.085938 11.714844 17.085938 C 11.714844 17.125 11.714844 17.160156 11.714844 17.199219 C 12.507812 17.199219 13.296875 17.199219 14.113281 17.199219 C 14.113281 17.164062 14.113281 17.125 14.113281 17.085938 C 14.152344 17.085938 14.191406 17.085938 14.230469 17.085938 C 14.246094 17.050781 14.261719 17.015625 14.277344 16.980469 C 14.34375 16.855469 14.34375 16.855469 14.457031 16.6875 C 14.472656 16.5625 14.472656 16.5625 14.46875 16.429688 C 14.46875 16.378906 14.464844 16.328125 14.464844 16.273438 C 14.457031 16.117188 14.441406 15.960938 14.421875 15.804688 C 14.363281 15.167969 14.542969 14.6875 14.914062 14.171875 C 15.023438 14.058594 15.128906 13.976562 15.257812 13.886719 C 15.292969 13.847656 15.328125 13.808594 15.363281 13.769531 C 15.878906 13.296875 16.546875 13.363281 17.199219 13.367188 C 17.308594 13.367188 17.308594 13.367188 17.417969 13.367188 C 17.59375 13.371094 17.765625 13.371094 17.941406 13.371094 C 17.957031 13.335938 17.972656 13.300781 17.984375 13.265625 C 18.070312 13.121094 18.136719 13.089844 18.285156 13.027344 C 18.285156 12.976562 18.285156 12.921875 18.28125 12.871094 C 18.277344 12.671875 18.273438 12.476562 18.273438 12.277344 C 18.273438 12.195312 18.269531 12.109375 18.269531 12.023438 C 18.257812 11.519531 18.269531 11.085938 18.515625 10.628906 C 18.53125 10.589844 18.550781 10.554688 18.570312 10.515625 C 18.609375 10.515625 18.648438 10.515625 18.6875 10.515625 C 18.6875 10.476562 18.6875 10.4375 18.6875 10.398438 C 18.722656 10.398438 18.761719 10.398438 18.800781 10.398438 C 18.820312 10.351562 18.820312 10.351562 18.84375 10.300781 C 18.988281 10.042969 19.195312 9.898438 19.449219 9.761719 C 19.503906 9.730469 19.554688 9.703125 19.609375 9.671875 C 19.914062 9.535156 20.214844 9.535156 20.546875 9.535156 Z M 20.546875 9.535156 "/>
<path style=" stroke:none;fill-rule:nonzero;fill:rgb(0%,79.607844%,73.725492%);fill-opacity:1;" d="M 22.457031 29.027344 C 23.191406 29.027344 23.929688 29.027344 24.6875 29.027344 C 24.824219 29.335938 24.960938 29.640625 25.101562 29.949219 C 25.148438 30.050781 25.195312 30.15625 25.242188 30.261719 C 25.308594 30.410156 25.375 30.5625 25.445312 30.714844 C 25.46875 30.761719 25.488281 30.8125 25.511719 30.863281 C 25.625 31.117188 25.738281 31.367188 25.847656 31.617188 C 25.871094 31.664062 25.890625 31.710938 25.910156 31.761719 C 25.953125 31.851562 25.992188 31.941406 26.03125 32.035156 C 26.109375 32.230469 26.109375 32.230469 26.230469 32.398438 C 26.386719 32.046875 26.542969 31.695312 26.699219 31.34375 C 26.75 31.226562 26.804688 31.105469 26.855469 30.988281 C 26.933594 30.816406 27.011719 30.640625 27.089844 30.46875 C 27.109375 30.417969 27.132812 30.363281 27.160156 30.3125 C 27.347656 29.886719 27.53125 29.457031 27.714844 29.027344 C 28.449219 29.027344 29.183594 29.027344 29.941406 29.027344 C 29.941406 31.367188 29.941406 33.707031 29.941406 36.113281 C 29.320312 36.113281 28.699219 36.113281 28.058594 36.113281 C 28.039062 34.679688 28.019531 33.246094 28 31.769531 C 27.417969 33.109375 27.417969 33.109375 26.855469 34.457031 C 26.40625 34.457031 25.953125 34.457031 25.484375 34.457031 C 25.207031 33.867188 24.941406 33.273438 24.691406 32.667969 C 24.644531 32.546875 24.59375 32.429688 24.542969 32.308594 C 24.5 32.203125 24.457031 32.097656 24.410156 31.992188 C 24.371094 31.898438 24.332031 31.804688 24.285156 31.714844 C 24.265625 33.167969 24.246094 34.617188 24.230469 36.113281 C 23.644531 36.113281 23.058594 36.113281 22.457031 36.113281 C 22.457031 33.777344 22.457031 31.4375 22.457031 29.027344 Z M 22.457031 29.027344 "/>
<path style=" stroke:none;fill-rule:nonzero;fill:rgb(0%,79.607844%,73.725492%);fill-opacity:1;" d="M 16.113281 29.027344 C 17.8125 29.027344 19.507812 29.027344 21.257812 29.027344 C 21.257812 29.480469 21.257812 29.933594 21.257812 30.398438 C 20.183594 30.398438 19.109375 30.398438 18 30.398438 C 18 30.832031 18 31.265625 18 31.714844 C 19 31.714844 20 31.714844 21.027344 31.714844 C 21.027344 32.167969 21.027344 32.621094 21.027344 33.085938 C 20.027344 33.085938 19.03125 33.085938 18 33.085938 C 18 34.085938 18 35.085938 18 36.113281 C 17.378906 36.113281 16.753906 36.113281 16.113281 36.113281 C 16.113281 33.777344 16.113281 31.4375 16.113281 29.027344 Z M 16.113281 29.027344 "/>
<path style=" stroke:none;fill-rule:nonzero;fill:rgb(40.392157%,12.54902%,31.764707%);fill-opacity:1;" d="M 8.800781 29.027344 C 10.875 29.027344 12.949219 29.027344 15.085938 29.027344 C 15.085938 29.480469 15.085938 29.933594 15.085938 30.398438 C 14.351562 30.398438 13.613281 30.398438 12.855469 30.398438 C 12.855469 32.285156 12.855469 34.171875 12.855469 36.113281 C 12.253906 36.113281 11.648438 36.113281 11.027344 36.113281 C 11.027344 34.230469 11.027344 32.34375 11.027344 30.398438 C 10.292969 30.398438 9.558594 30.398438 8.800781 30.398438 C 8.800781 29.949219 8.800781 29.496094 8.800781 29.027344 Z M 8.800781 29.027344 "/>
<path style=" stroke:none;fill-rule:nonzero;fill:rgb(37.254903%,14.901961%,31.37255%);fill-opacity:1;" d="M 12.277344 9.8125 C 12.367188 9.8125 12.367188 9.8125 12.460938 9.8125 C 12.585938 9.8125 12.710938 9.8125 12.835938 9.8125 C 13.027344 9.8125 13.21875 9.8125 13.410156 9.8125 C 13.535156 9.8125 13.65625 9.8125 13.777344 9.8125 C 13.863281 9.8125 13.863281 9.8125 13.953125 9.8125 C 14.484375 9.816406 14.484375 9.816406 14.742188 9.941406 C 14.910156 10.121094 14.9375 10.246094 14.9375 10.488281 C 14.941406 10.550781 14.941406 10.613281 14.941406 10.679688 C 14.941406 10.746094 14.941406 10.8125 14.941406 10.882812 C 14.945312 10.953125 14.945312 11.023438 14.945312 11.097656 C 14.945312 11.242188 14.945312 11.390625 14.945312 11.539062 C 14.945312 11.765625 14.949219 11.992188 14.953125 12.21875 C 14.953125 12.363281 14.953125 12.507812 14.953125 12.652344 C 14.953125 12.71875 14.957031 12.789062 14.957031 12.855469 C 14.957031 13.144531 14.953125 13.316406 14.785156 13.558594 C 14.507812 13.730469 14.164062 13.691406 13.851562 13.683594 C 13.746094 13.683594 13.746094 13.683594 13.640625 13.683594 C 13.417969 13.683594 13.199219 13.679688 12.980469 13.675781 C 12.828125 13.671875 12.679688 13.671875 12.527344 13.671875 C 12.164062 13.667969 11.796875 13.664062 11.429688 13.65625 C 11.429688 13.621094 11.429688 13.582031 11.429688 13.542969 C 11.394531 13.539062 11.359375 13.535156 11.320312 13.527344 C 11.199219 13.484375 11.199219 13.484375 11.136719 13.386719 C 11.078125 13.238281 11.070312 13.128906 11.070312 12.96875 C 11.070312 12.910156 11.070312 12.851562 11.070312 12.792969 C 11.070312 12.734375 11.070312 12.671875 11.070312 12.605469 C 11.070312 12.542969 11.070312 12.480469 11.070312 12.414062 C 11.070312 12.28125 11.070312 12.144531 11.070312 12.011719 C 11.070312 11.804688 11.070312 11.597656 11.070312 11.394531 C 11.070312 11.261719 11.070312 11.132812 11.070312 11 C 11.070312 10.9375 11.070312 10.878906 11.070312 10.8125 C 11.070312 10.757812 11.070312 10.699219 11.070312 10.640625 C 11.070312 10.589844 11.070312 10.539062 11.070312 10.484375 C 11.085938 10.328125 11.132812 10.203125 11.199219 10.058594 C 11.238281 10.058594 11.277344 10.058594 11.3125 10.058594 C 11.3125 10.019531 11.3125 9.980469 11.3125 9.941406 C 11.636719 9.804688 11.9375 9.8125 12.277344 9.8125 Z M 12.277344 9.8125 "/>
<path style=" stroke:none;fill-rule:nonzero;fill:rgb(37.254903%,14.509805%,31.37255%);fill-opacity:1;" d="M 16.140625 6.21875 C 16.191406 6.21875 16.246094 6.21875 16.296875 6.21875 C 16.410156 6.21875 16.519531 6.21875 16.628906 6.21875 C 16.796875 6.21875 16.964844 6.21875 17.128906 6.214844 C 17.238281 6.214844 17.34375 6.214844 17.453125 6.214844 C 17.5 6.214844 17.550781 6.214844 17.601562 6.214844 C 17.867188 6.214844 18.097656 6.222656 18.34375 6.34375 C 18.457031 6.515625 18.472656 6.65625 18.472656 6.859375 C 18.472656 6.949219 18.472656 6.949219 18.472656 7.035156 C 18.472656 7.097656 18.472656 7.160156 18.472656 7.222656 C 18.472656 7.285156 18.476562 7.351562 18.476562 7.417969 C 18.476562 7.550781 18.476562 7.6875 18.476562 7.820312 C 18.476562 8.027344 18.476562 8.234375 18.476562 8.441406 C 18.476562 8.570312 18.476562 8.703125 18.476562 8.832031 C 18.476562 8.894531 18.480469 8.957031 18.480469 9.019531 C 18.480469 9.078125 18.480469 9.136719 18.476562 9.195312 C 18.476562 9.246094 18.476562 9.296875 18.480469 9.347656 C 18.453125 9.519531 18.410156 9.59375 18.285156 9.714844 C 18.152344 9.742188 18.152344 9.742188 17.996094 9.746094 C 17.910156 9.746094 17.910156 9.746094 17.820312 9.746094 C 17.757812 9.746094 17.695312 9.746094 17.628906 9.746094 C 17.5625 9.746094 17.5 9.746094 17.433594 9.746094 C 17.292969 9.75 17.15625 9.746094 17.019531 9.746094 C 16.808594 9.746094 16.597656 9.75 16.386719 9.75 C 16.253906 9.75 16.121094 9.75 15.984375 9.75 C 15.890625 9.75 15.890625 9.75 15.796875 9.753906 C 15.53125 9.75 15.363281 9.742188 15.132812 9.609375 C 14.976562 9.335938 14.992188 9.09375 15 8.789062 C 15 8.726562 15 8.664062 15 8.601562 C 15.003906 8.402344 15.007812 8.207031 15.011719 8.011719 C 15.011719 7.878906 15.011719 7.742188 15.015625 7.609375 C 15.019531 7.28125 15.023438 6.957031 15.027344 6.628906 C 15.066406 6.628906 15.105469 6.628906 15.144531 6.628906 C 15.144531 6.554688 15.144531 6.476562 15.144531 6.398438 C 15.453125 6.191406 15.777344 6.21875 16.140625 6.21875 Z M 16.140625 6.21875 "/>
<path style=" stroke:none;fill-rule:nonzero;fill:rgb(37.64706%,14.509805%,30.980393%);fill-opacity:1;" d="M 19.46875 2.789062 C 19.523438 2.789062 19.578125 2.789062 19.636719 2.789062 C 19.726562 2.789062 19.726562 2.789062 19.820312 2.789062 C 19.882812 2.789062 19.941406 2.789062 20.007812 2.789062 C 20.136719 2.785156 20.269531 2.785156 20.398438 2.785156 C 20.597656 2.785156 20.800781 2.785156 21 2.78125 C 21.125 2.78125 21.253906 2.78125 21.378906 2.78125 C 21.441406 2.78125 21.5 2.78125 21.5625 2.777344 C 21.648438 2.78125 21.648438 2.78125 21.730469 2.78125 C 21.78125 2.78125 21.832031 2.777344 21.878906 2.777344 C 21.921875 2.785156 21.960938 2.792969 22 2.800781 C 22.117188 2.976562 22.128906 3.015625 22.132812 3.21875 C 22.132812 3.265625 22.132812 3.316406 22.132812 3.367188 C 22.136719 3.421875 22.136719 3.472656 22.136719 3.527344 C 22.136719 3.609375 22.136719 3.609375 22.136719 3.695312 C 22.136719 3.8125 22.136719 3.925781 22.136719 4.042969 C 22.140625 4.21875 22.140625 4.398438 22.144531 4.574219 C 22.144531 4.6875 22.144531 4.800781 22.144531 4.914062 C 22.148438 4.96875 22.148438 5.019531 22.148438 5.074219 C 22.148438 5.316406 22.132812 5.453125 22.007812 5.664062 C 21.746094 5.820312 21.523438 5.808594 21.226562 5.800781 C 21.167969 5.800781 21.109375 5.796875 21.050781 5.796875 C 20.867188 5.796875 20.679688 5.792969 20.496094 5.789062 C 20.371094 5.789062 20.246094 5.785156 20.121094 5.785156 C 19.8125 5.78125 19.507812 5.777344 19.199219 5.769531 C 18.984375 5.449219 18.9375 5.222656 18.945312 4.839844 C 18.945312 4.789062 18.945312 4.742188 18.945312 4.691406 C 18.945312 4.585938 18.945312 4.480469 18.949219 4.378906 C 18.949219 4.21875 18.949219 4.058594 18.949219 3.898438 C 18.949219 3.796875 18.953125 3.695312 18.953125 3.59375 C 18.953125 3.546875 18.953125 3.5 18.953125 3.449219 C 18.960938 3.03125 18.960938 3.03125 19.085938 2.855469 C 19.222656 2.789062 19.3125 2.792969 19.46875 2.789062 Z M 19.46875 2.789062 "/>
<path style=" stroke:none;fill-rule:nonzero;fill:rgb(37.64706%,14.509805%,31.37255%);fill-opacity:1;" d="M 23.65625 6.660156 C 23.707031 6.660156 23.757812 6.660156 23.808594 6.660156 C 23.914062 6.660156 24.019531 6.660156 24.125 6.660156 C 24.285156 6.660156 24.445312 6.660156 24.605469 6.65625 C 24.710938 6.65625 24.8125 6.65625 24.914062 6.65625 C 24.988281 6.65625 24.988281 6.65625 25.058594 6.65625 C 25.265625 6.65625 25.394531 6.664062 25.574219 6.769531 C 25.699219 6.988281 25.691406 7.183594 25.6875 7.429688 C 25.6875 7.476562 25.6875 7.527344 25.6875 7.578125 C 25.6875 7.683594 25.6875 7.789062 25.6875 7.894531 C 25.6875 8.054688 25.6875 8.21875 25.6875 8.378906 C 25.6875 8.480469 25.6875 8.582031 25.6875 8.6875 C 25.6875 8.734375 25.6875 8.78125 25.6875 8.832031 C 25.6875 9.035156 25.675781 9.164062 25.574219 9.34375 C 25.355469 9.46875 25.160156 9.460938 24.914062 9.457031 C 24.863281 9.460938 24.816406 9.460938 24.761719 9.460938 C 24.65625 9.460938 24.550781 9.460938 24.449219 9.457031 C 24.285156 9.457031 24.125 9.457031 23.964844 9.460938 C 23.863281 9.460938 23.757812 9.460938 23.65625 9.457031 C 23.609375 9.460938 23.5625 9.460938 23.511719 9.460938 C 23.308594 9.457031 23.175781 9.449219 23 9.34375 C 22.871094 9.125 22.882812 8.921875 22.882812 8.671875 C 22.882812 8.621094 22.882812 8.570312 22.882812 8.515625 C 22.882812 8.40625 22.882812 8.300781 22.882812 8.191406 C 22.886719 8.023438 22.882812 7.859375 22.882812 7.695312 C 22.882812 7.589844 22.882812 7.484375 22.882812 7.378906 C 22.882812 7.328125 22.882812 7.277344 22.882812 7.226562 C 22.886719 6.894531 22.886719 6.894531 23 6.742188 C 23.21875 6.65625 23.425781 6.660156 23.65625 6.660156 Z M 23.65625 6.660156 "/>
<path style=" stroke:none;fill-rule:nonzero;fill:rgb(37.64706%,14.901961%,30.980393%);fill-opacity:1;" d="M 27.488281 10.601562 C 27.554688 10.601562 27.554688 10.601562 27.621094 10.601562 C 27.761719 10.601562 27.902344 10.605469 28.042969 10.609375 C 28.136719 10.613281 28.234375 10.613281 28.328125 10.613281 C 28.5625 10.617188 28.796875 10.621094 29.027344 10.628906 C 29.027344 10.667969 29.027344 10.703125 29.027344 10.742188 C 29.066406 10.742188 29.105469 10.742188 29.144531 10.742188 C 29.324219 11.035156 29.277344 11.371094 29.273438 11.707031 C 29.273438 11.824219 29.277344 11.945312 29.277344 12.0625 C 29.277344 12.136719 29.277344 12.214844 29.277344 12.289062 C 29.277344 12.359375 29.277344 12.429688 29.277344 12.5 C 29.253906 12.710938 29.234375 12.816406 29.085938 12.972656 C 28.917969 13 28.78125 13.011719 28.613281 13.007812 C 28.542969 13.011719 28.542969 13.011719 28.472656 13.011719 C 28.375 13.011719 28.277344 13.011719 28.179688 13.007812 C 28.027344 13.007812 27.878906 13.007812 27.730469 13.011719 C 27.632812 13.011719 27.539062 13.011719 27.445312 13.007812 C 27.398438 13.011719 27.355469 13.011719 27.308594 13.011719 C 27.183594 13.007812 27.183594 13.007812 26.972656 12.972656 C 26.707031 12.691406 26.773438 12.285156 26.773438 11.921875 C 26.773438 11.800781 26.773438 11.679688 26.773438 11.554688 C 26.769531 11.476562 26.769531 11.398438 26.773438 11.320312 C 26.773438 11.25 26.769531 11.179688 26.769531 11.105469 C 26.839844 10.65625 27.074219 10.585938 27.488281 10.601562 Z M 27.488281 10.601562 "/>
<path style=" stroke:none;fill-rule:nonzero;fill:rgb(37.64706%,14.509805%,30.980393%);fill-opacity:1;" d="M 31.359375 14.550781 C 31.398438 14.554688 31.4375 14.554688 31.476562 14.554688 C 31.554688 14.554688 31.632812 14.554688 31.714844 14.554688 C 31.835938 14.558594 31.957031 14.558594 32.078125 14.558594 C 32.675781 14.5625 32.675781 14.5625 32.742188 14.628906 C 32.75 14.773438 32.75 14.914062 32.75 15.058594 C 32.75 15.101562 32.75 15.144531 32.75 15.1875 C 32.75 15.277344 32.75 15.367188 32.75 15.460938 C 32.75 15.597656 32.75 15.738281 32.75 15.878906 C 32.75 15.964844 32.75 16.054688 32.75 16.144531 C 32.75 16.183594 32.75 16.226562 32.75 16.269531 C 32.75 16.566406 32.75 16.566406 32.6875 16.628906 C 32.554688 16.632812 32.421875 16.632812 32.292969 16.632812 C 32.234375 16.632812 32.234375 16.632812 32.171875 16.632812 C 32.046875 16.632812 31.921875 16.632812 31.796875 16.632812 C 31.710938 16.632812 31.625 16.632812 31.542969 16.632812 C 31.332031 16.628906 31.125 16.628906 30.914062 16.628906 C 30.914062 16.570312 30.914062 16.515625 30.914062 16.457031 C 30.875 16.457031 30.839844 16.457031 30.800781 16.457031 C 30.796875 16.214844 30.792969 15.976562 30.789062 15.734375 C 30.789062 15.652344 30.789062 15.570312 30.785156 15.488281 C 30.785156 15.371094 30.785156 15.253906 30.785156 15.132812 C 30.78125 15.0625 30.78125 14.992188 30.78125 14.917969 C 30.800781 14.742188 30.800781 14.742188 30.863281 14.632812 C 31.027344 14.539062 31.171875 14.550781 31.359375 14.550781 Z M 31.359375 14.550781 "/>
<path style=" stroke:none;fill-rule:nonzero;fill:rgb(37.64706%,14.509805%,31.37255%);fill-opacity:1;" d="M 27.46875 18.480469 C 27.558594 18.480469 27.558594 18.480469 27.652344 18.480469 C 27.71875 18.484375 27.785156 18.484375 27.851562 18.484375 C 27.921875 18.484375 27.988281 18.488281 28.0625 18.488281 C 28.128906 18.488281 28.199219 18.488281 28.269531 18.492188 C 28.78125 18.496094 28.78125 18.496094 28.914062 18.628906 C 28.929688 18.777344 28.929688 18.777344 28.929688 18.960938 C 28.929688 19.058594 28.929688 19.058594 28.929688 19.160156 C 28.929688 19.230469 28.929688 19.300781 28.929688 19.371094 C 28.929688 19.441406 28.929688 19.511719 28.929688 19.582031 C 28.929688 19.648438 28.929688 19.714844 28.929688 19.78125 C 28.929688 19.84375 28.929688 19.902344 28.929688 19.964844 C 28.914062 20.113281 28.914062 20.113281 28.800781 20.230469 C 28.554688 20.257812 28.308594 20.253906 28.0625 20.253906 C 27.992188 20.253906 27.921875 20.257812 27.851562 20.257812 C 27.753906 20.261719 27.753906 20.261719 27.652344 20.261719 C 27.589844 20.261719 27.53125 20.261719 27.46875 20.261719 C 27.3125 20.230469 27.3125 20.230469 27.207031 20.101562 C 27.144531 19.945312 27.121094 19.84375 27.121094 19.675781 C 27.121094 19.625 27.121094 19.578125 27.121094 19.527344 C 27.121094 19.476562 27.121094 19.421875 27.121094 19.371094 C 27.121094 19.320312 27.121094 19.269531 27.121094 19.21875 C 27.121094 19.167969 27.121094 19.117188 27.121094 19.066406 C 27.121094 19.023438 27.121094 18.980469 27.121094 18.933594 C 27.160156 18.695312 27.222656 18.535156 27.46875 18.480469 Z M 27.46875 18.480469 "/>
<path style=" stroke:none;fill-rule:nonzero;fill:rgb(37.254903%,14.509805%,30.980393%);fill-opacity:1;" d="M 23.785156 22.507812 C 23.839844 22.507812 23.894531 22.507812 23.949219 22.507812 C 24.039062 22.507812 24.039062 22.507812 24.128906 22.507812 C 24.191406 22.507812 24.253906 22.511719 24.316406 22.511719 C 24.410156 22.511719 24.410156 22.511719 24.507812 22.511719 C 24.660156 22.511719 24.816406 22.511719 24.972656 22.515625 C 25.070312 22.707031 25.039062 22.925781 25.039062 23.140625 C 25.039062 23.1875 25.039062 23.234375 25.042969 23.28125 C 25.042969 23.351562 25.042969 23.351562 25.042969 23.417969 C 25.042969 23.460938 25.042969 23.503906 25.042969 23.546875 C 25.027344 23.65625 25.027344 23.65625 24.914062 23.828125 C 24.792969 23.847656 24.792969 23.847656 24.640625 23.84375 C 24.585938 23.84375 24.53125 23.84375 24.476562 23.84375 C 24.394531 23.839844 24.394531 23.839844 24.308594 23.839844 C 24.222656 23.839844 24.222656 23.839844 24.136719 23.835938 C 23.996094 23.835938 23.855469 23.832031 23.714844 23.828125 C 23.714844 23.789062 23.714844 23.753906 23.714844 23.714844 C 23.675781 23.714844 23.640625 23.714844 23.601562 23.714844 C 23.597656 23.523438 23.597656 23.335938 23.597656 23.144531 C 23.597656 23.09375 23.59375 23.039062 23.59375 22.984375 C 23.59375 22.929688 23.59375 22.878906 23.59375 22.828125 C 23.59375 22.78125 23.59375 22.730469 23.59375 22.683594 C 23.601562 22.523438 23.621094 22.515625 23.785156 22.507812 Z M 23.785156 22.507812 "/>
<path style=" stroke:none;fill-rule:nonzero;fill:rgb(37.254903%,14.901961%,31.37255%);fill-opacity:1;" d="M 20.058594 26.398438 C 20.214844 26.386719 20.359375 26.382812 20.519531 26.386719 C 20.582031 26.386719 20.582031 26.386719 20.648438 26.386719 C 20.960938 26.390625 20.960938 26.390625 21.027344 26.457031 C 21.03125 26.601562 21.035156 26.746094 21.03125 26.890625 C 21.03125 26.929688 21.03125 26.96875 21.03125 27.011719 C 21.03125 27.113281 21.03125 27.214844 21.027344 27.3125 C 20.859375 27.316406 20.6875 27.316406 20.519531 27.316406 C 20.445312 27.320312 20.445312 27.320312 20.371094 27.320312 C 20.324219 27.320312 20.277344 27.320312 20.230469 27.320312 C 20.1875 27.320312 20.144531 27.320312 20.101562 27.320312 C 20 27.3125 20 27.3125 19.941406 27.257812 C 19.9375 27.144531 19.933594 27.035156 19.933594 26.921875 C 19.929688 26.859375 19.929688 26.800781 19.929688 26.734375 C 19.941406 26.570312 19.941406 26.570312 20.058594 26.398438 Z M 20.058594 26.398438 "/>
</g>
</svg>
