<svg width="24" height="24" viewBox="0 0 24 24" fill="none" xmlns="http://www.w3.org/2000/svg">
<path d="M14.75 4.00256C15.9926 4.00256 17 5.00992 17 6.25256V6.99994H19.75C20.9926 6.99994 22 8.0073 22 9.24994V17.7467C22 18.9893 20.9926 19.9967 19.75 19.9967H4.25C3.00736 19.9967 2 18.9893 2 17.7467V9.24994C2 8.0073 3.00736 6.99994 4.25 6.99994H7V6.25256C7 5.00992 8.00736 4.00256 9.25 4.00256H14.75ZM6.5 12.9999H3.5V17.7467C3.5 18.1609 3.83579 18.4967 4.25 18.4967H19.75C20.1642 18.4967 20.5 18.1609 20.5 17.7467V12.9999H17.5V14.2499C17.5 14.6641 17.1642 14.9999 16.75 14.9999C16.3358 14.9999 16 14.6641 16 14.2499V12.9999H8V14.2499C8 14.6641 7.66421 14.9999 7.25 14.9999C6.83579 14.9999 6.5 14.6641 6.5 14.2499V12.9999ZM19.75 8.49994H17L15.5 8.50256L8.5 8.49994L7 8.50256L4.25 8.49994C3.83579 8.49994 3.5 8.83573 3.5 9.24994V11.4999H6.5V10.7499C6.5 10.3357 6.83579 9.99994 7.25 9.99994C7.66421 9.99994 8 10.3357 8 10.7499V11.4999H16V10.7499C16 10.3357 16.3358 9.99994 16.75 9.99994C17.1642 9.99994 17.5 10.3357 17.5 10.7499V11.4999H20.5V9.24994C20.5 8.83573 20.1642 8.49994 19.75 8.49994ZM14.75 5.50256H9.25C8.83579 5.50256 8.5 5.83835 8.5 6.25256V6.99994H15.5V6.25256C15.5 5.83835 15.1642 5.50256 14.75 5.50256Z" fill="#FF8800"/>
</svg>
