<svg width="24" height="24" viewBox="0 0 24 24" fill="none" xmlns="http://www.w3.org/2000/svg">
<g clip-path="url(#clip0)">
<path d="M17.9377 5.56027C18.2062 5.82876 18.2287 6.2501 18.005 6.54412L17.9379 6.62093L12.8122 11.7484L17.9409 16.8771C18.2338 17.17 18.2338 17.6449 17.9409 17.9378C17.6724 18.2063 17.251 18.2286 16.957 18.0049L16.8802 17.9378L11.7515 12.8091L6.62704 17.9364C6.33421 18.2294 5.85927 18.2295 5.56638 17.9366C5.2979 17.6681 5.27538 17.2468 5.49906 16.9528L5.56616 16.876L10.6908 11.7484L5.56501 6.6226C5.27212 6.32971 5.27212 5.85483 5.56501 5.56194C5.8335 5.29345 6.2549 5.27108 6.54887 5.49482L6.62567 5.56194L11.7515 10.6878L16.8771 5.56049C17.1699 5.26754 17.6448 5.26738 17.9377 5.56027Z" fill="#602650"/>
</g>
<defs>
<clipPath id="clip0">
<rect width="24" height="24" fill="white"/>
</clipPath>
</defs>
</svg>
