<svg width="20" height="20" viewBox="0 0 20 20" fill="none" xmlns="http://www.w3.org/2000/svg">
<path d="M9.75013 0.000366211C10.1298 0.000366211 10.4436 0.282632 10.4932 0.648727L10.5 0.7505L10.499 4.09637L12.6715 2.18874C12.9827 1.91534 13.4566 1.94597 13.73 2.25714C14.0034 2.56831 13.9727 3.0422 13.6616 3.31559L10.499 6.09337L10.498 8.99937H13.407L16.1865 5.83861C16.4351 5.55581 16.8494 5.50493 17.1563 5.70351L17.2449 5.77058C17.5277 6.01923 17.5786 6.43348 17.38 6.74046L17.313 6.82906L15.405 8.99837L18.75 8.9992C19.1296 8.99917 19.4435 9.2813 19.4932 9.64738L19.5 9.74915C19.5 10.1288 19.2179 10.4427 18.8518 10.4923L18.75 10.4992L15.402 10.4994L17.311 12.6719C17.5595 12.9548 17.5568 13.3721 17.3204 13.6511L17.2426 13.7303C16.9597 13.9789 16.5423 13.9762 16.2634 13.7398L16.1841 13.6619L13.405 10.4994L10.497 10.4984L10.498 13.4064L13.6616 16.1862C13.9444 16.4347 13.9955 16.8489 13.797 17.156L13.73 17.2446C13.4814 17.5275 13.0672 17.5785 12.7601 17.38L12.6715 17.313L10.498 15.4034L10.4968 18.7505C10.4967 19.1302 10.2145 19.4439 9.84843 19.4935L9.74666 19.5004C9.36696 19.5004 9.05322 19.2181 9.00362 18.852L8.99679 18.7502L8.996 15.4064L6.82869 17.3128C6.51762 17.5863 6.04372 17.5559 5.77022 17.2448C5.49671 16.9337 5.52717 16.4598 5.83824 16.1863L8.997 13.4084V10.4994H6.312L3.31512 13.9115C3.04172 14.2227 2.56784 14.2533 2.25667 13.9799C1.94549 13.7065 1.91487 13.2327 2.18826 12.9215L4.316 10.4994L0.750049 10.5004C0.370353 10.5004 0.0565169 10.2183 0.00684762 9.85219L0 9.75041C0 9.37072 0.282113 9.05691 0.648182 9.00722L0.749951 9.00037H3.874L2.18798 7.07815C1.91476 6.76682 1.94566 6.29296 2.25699 6.01974C2.56831 5.74652 3.04218 5.77742 3.3154 6.08874L5.87 8.99937H8.998V6.09137L5.83824 3.31323C5.55544 3.06459 5.50457 2.65033 5.70314 2.34336L5.77022 2.25475C6.01886 1.97196 6.43311 1.92108 6.74009 2.11966L6.82869 2.18673L8.999 4.09437L9 0.750232C9.00006 0.405054 9.2333 0.114433 9.55075 0.0271471L9.64836 0.00721025L9.75013 0.000366211Z" fill="#A6A2A2"/>
</svg>
