<svg width="24" height="24" viewBox="0 0 24 24" fill="none" xmlns="http://www.w3.org/2000/svg">
<path d="M8.64372 8.20791L11.3273 2.75961C11.6022 2.20147 12.398 2.20147 12.6729 2.75961L15.3565 8.20791L21.3674 9.07651C21.9829 9.16546 22.229 9.92191 21.7835 10.356L17.436 14.5921L18.4623 20.5778C18.5674 21.1908 17.9238 21.658 17.3736 21.3682L12.0001 18.5378L6.62662 21.3682C6.07614 21.6581 5.43233 21.1904 5.53798 20.5772L6.56937 14.5921L2.217 10.3563C1.77112 9.92234 2.01704 9.16549 2.63282 9.07651L8.64372 8.20791ZM12.0001 4.78838L9.81479 9.2251C9.70554 9.44691 9.49397 9.60063 9.24924 9.63599L4.35438 10.3433L7.89865 13.7927C8.07585 13.9651 8.15667 14.2138 8.11468 14.4575L7.27478 19.3314L11.6506 17.0265C11.8693 16.9113 12.1308 16.9113 12.3496 17.0265L16.7268 19.3321L15.8909 14.4569C15.8492 14.2136 15.9299 13.9653 16.1067 13.793L19.6469 10.3435L14.7509 9.63599C14.5062 9.60063 14.2947 9.44691 14.1854 9.2251L12.0001 4.78838Z" fill="#847577"/>
</svg>
